<svg width="524" height="726" viewBox="0 0 524 726" fill="none" xmlns="http://www.w3.org/2000/svg">
<path d="M523.695 257.86L263.177 0L273.81 276.469L523.695 518.379V257.86Z" fill="#B93E40"/>
<path d="M263.177 0H241.91L233.935 276.469H273.81L263.177 0Z" fill="#F26B6F"/>
<path d="M459.895 725.73V664.588L489.137 536.987H523.695V518.379L273.81 276.469H233.935L0 507.745V531.67H15.9501L53.167 664.588V725.73H66.4588V590.154V558.254V489.137L233.935 316.344H268.494L443.945 494.453V552.937V590.154V725.73H459.895Z" fill="#FFA52E"/>
<path fill-rule="evenodd" clip-rule="evenodd" d="M443.945 494.453L268.494 316.344H233.935L66.4588 489.137V558.254L122.284 525.025H146.209V507.745L172.793 459.895L337.611 462.553L364.194 507.745V525.025H390.778L443.945 552.937V494.453ZM289.76 438.628H217.985V427.995V361.536H244.568H267.164H289.76V427.995V438.628Z" fill="#F7E6CF"/>
<path fill-rule="evenodd" clip-rule="evenodd" d="M172.793 725.73V563.571H337.611V725.73H443.945V590.154L390.778 558.254H127.601L66.4588 590.154V725.73H172.793ZM350.902 622.054V590.154V584.837H390.778V622.054H350.902Z" fill="#92A0BB"/>
<path d="M172.793 459.895L146.209 507.745V525.025H364.194V507.745L337.611 462.553L172.793 459.895Z" fill="#B93E40"/>
<path d="M146.209 542.304H364.194V525.025H146.209V542.304Z" fill="#F26B6F"/>
<path d="M66.4588 590.154L127.601 558.254H390.778L443.945 590.154V552.937L390.778 525.025H364.194V542.304H146.209V525.025H122.284L66.4588 558.254V590.154Z" fill="#3473A4"/>
<path d="M241.91 0L0 231.277V507.745L233.935 276.469L241.91 0Z" fill="#B93E40"/>
<path fill-rule="evenodd" clip-rule="evenodd" d="M172.793 563.571V725.73H337.611V563.571H172.793ZM263.177 648.638H225.96V635.346V592.813H281.785H289.76V648.638H276.469V656.613H263.177V648.638ZM295.077 691.172V672.563H316.344V691.172H295.077Z" fill="#B93E40"/>
<path d="M244.568 361.536V427.995H267.164V361.536H244.568Z" fill="#FFA52E"/>
<path d="M217.985 438.628H289.76V427.995H267.164H244.568H217.985V438.628Z" fill="#75490E"/>
<path fill-rule="evenodd" clip-rule="evenodd" d="M289.76 427.995V361.536H267.164V427.995H289.76ZM244.568 361.536V427.995H217.985V361.536H244.568ZM350.902 622.054V590.154V584.837H390.778V622.054H350.902ZM225.96 592.813H281.785V635.346H225.96V592.813ZM295.077 691.172V672.563H316.344V691.172H295.077Z" fill="#1F506E"/>
<path d="M225.96 648.638H263.177V656.613H276.469V648.638H289.76V592.813H281.785V635.346H225.96V648.638Z" fill="#26C8E9"/>
</svg>
