<svg width="705" height="773" viewBox="0 0 705 773" fill="none" xmlns="http://www.w3.org/2000/svg">
<path d="M178.716 515.123L412.624 281.215H423.137V0L178.716 247.049V365.317V515.123Z" fill="#EC8B1B"/>
<path d="M462.56 281.215L696.468 515.123L704.352 257.562L670.186 222.683V249.677V404.74L544.033 283.439L533.52 273.331V215.511H520.38V89.3581H539.581L452.047 0V281.215H462.56Z" fill="#EC8B1B"/>
<path d="M423.137 0V281.215H452.047V0H423.137Z" fill="#EC8B1B"/>
<path d="M210.254 528.264L178.716 515.123V365.317H68.3327L0 436.278V596.597L68.3327 528.264H210.254Z" fill="#EC8B1B"/>
<path d="M544.033 283.439L670.186 404.74V249.677H544.033V283.439Z" fill="#D49854"/>
<path d="M533.52 215.511V273.331L544.033 283.439V249.677H670.186V222.683L658.01 210.254H530.892V186.601H634.839L627.116 178.716H528.264V102.499H552.454L539.581 89.3581H520.38V215.511H533.52Z" fill="#59415A"/>
<path d="M530.892 186.601V210.254H658.01L634.839 186.601H530.892Z" fill="#D49854"/>
<path d="M678.07 210.254V186.601H634.839L658.01 210.254H678.07Z" fill="#D49854"/>
<path d="M696.468 215.511V89.3581H539.581L552.454 102.499H678.07V178.716H627.116L634.839 186.601H678.07V210.254H658.01L670.186 222.683V215.511H696.468Z" fill="#59415A"/>
<path d="M670.186 115.64V168.203H616.818L627.116 178.716H678.07V102.499H552.454L565.327 115.64H617.756H670.186Z" fill="#D49854"/>
<path d="M541.405 168.203V115.64H565.327L552.454 102.499H528.264V178.716H627.116L616.818 168.203H541.405Z" fill="#D49854"/>
<path d="M670.186 168.203V115.64H617.756H565.327L616.818 168.203H670.186Z" fill="#272E4A"/>
<path d="M541.405 115.64V168.203H616.818L565.327 115.64H541.405Z" fill="#272E4A"/>
<path d="M423.137 323.266H452.047L630.763 491.216L670.186 528.264L696.468 515.123L462.56 281.215H452.047H423.137H412.624L178.716 515.123L210.254 528.264L248.464 491.469L423.137 323.266Z" fill="#FFA52E"/>
<path d="M0 609.738H34.1663L45.9931 596.597L81.4736 557.174H91.9863H210.254V528.264H68.3327L0 596.597V609.738Z" fill="#FFA52E"/>
<path fill-rule="evenodd" clip-rule="evenodd" d="M452.047 323.266H423.137L248.464 491.469V591.34H630.763V491.216L452.047 323.266ZM488.841 465.188H391.599V454.675V423.137V412.624V381.086H431.021H449.419H488.841V412.624V423.137V454.675V465.188Z" fill="#FAE6CE"/>
<path fill-rule="evenodd" clip-rule="evenodd" d="M248.464 617.622L260.19 628.135V772.685H357.432V622.878V609.738H517.751V622.878V772.685H622.879V636.019L630.763 622.878V591.34H248.464V617.622ZM536.149 672.814V636.019H575.571V672.814H536.149Z" fill="#D49854"/>
<path d="M670.186 609.738V528.264L630.763 491.216V591.34V622.878L622.879 636.019V772.685H630.763L670.186 609.738Z" fill="#75490E"/>
<path d="M248.464 491.469L210.254 528.264V557.174V609.738L235.604 730.634L244.421 772.685H260.19V628.135L248.464 617.622V591.34V491.469Z" fill="#75490E"/>
<path d="M81.4736 557.174L45.9931 596.597V628.135L107.755 730.634H131.409L91.9863 628.135V557.174H81.4736Z" fill="#75490E"/>
<path fill-rule="evenodd" clip-rule="evenodd" d="M210.254 609.738V557.174H91.9863V628.135L131.409 730.634H235.604L210.254 609.738ZM131.409 664.929V604.481H191.857V664.929H131.409Z" fill="#FAE6CE"/>
<path d="M431.021 381.086V412.624H391.599V423.137H431.021V454.675H449.419V423.137H488.841V412.624H449.419V381.086H431.021Z" fill="#CC7400"/>
<path d="M391.599 465.188H488.841V454.675H449.419H431.021H391.599V465.188Z" fill="#75490E"/>
<path fill-rule="evenodd" clip-rule="evenodd" d="M357.432 772.685H517.751V622.878H357.432V772.685ZM449.419 693.839H404.74V680.698V636.019H470.444V680.698V693.839H457.303V706.98H449.419V693.839ZM478.329 730.634V714.865H496.726V730.634H478.329Z" fill="#9C5300"/>
<path d="M517.751 609.738H357.432V622.878H517.751V609.738Z" fill="#EFA44E"/>
<path d="M404.74 693.839H449.419V706.98H457.303V693.839H470.444V680.698H404.74V693.839Z" fill="#26C8E9"/>
<path fill-rule="evenodd" clip-rule="evenodd" d="M488.841 423.137V454.675H449.419V423.137H488.841ZM431.021 423.137V454.675H391.599V423.137H431.021ZM488.841 381.086V412.624H449.419V381.086H488.841ZM391.599 412.624V381.086H431.021V412.624H391.599ZM536.149 636.019V672.814H575.571V636.019H536.149ZM131.409 604.481V664.929H191.857V604.481H131.409ZM404.74 680.698V636.019H470.444V680.698H404.74Z" fill="#3473A4"/>
<path d="M478.329 714.865V730.634H496.726V714.865H478.329Z" fill="#26C8E9"/>
</svg>
