<svg width="605" height="96" viewBox="0 0 605 96" fill="none" xmlns="http://www.w3.org/2000/svg">
<path d="M565.569 6L596.645 49.7686L565.799 88H39.5615L9.15137 49.7695L39.791 6H565.569Z" fill="#E8CFA6" stroke="#B68962" stroke-width="12"/>
<path fill-rule="evenodd" clip-rule="evenodd" d="M482.266 86L502.668 60.5L478.168 23.5H32.668L12.668 50.4255L41.6555 86H482.266Z" fill="#A1940A"/>
<path d="M482.266 10H41.6555L32.668 23.5H478.168L502.668 60.5L511.668 50.4255L482.266 10Z" fill="#C2B016"/>
<path d="M484.812 5L486.31 7.05859L515.712 47.4844L518.085 50.748L515.396 53.7568L506.493 63.7217L486.171 89.124L484.669 91H39.2803L37.7793 89.1582L8.79199 53.584L6.33398 50.5674L8.6543 47.4443L28.5762 20.6221L37.4932 7.22949L38.9775 5H484.812Z" stroke="#6D411B" stroke-width="10"/>
</svg>
