<svg width="605" height="96" viewBox="0 0 605 96" fill="none" xmlns="http://www.w3.org/2000/svg">
<path d="M565.569 6L596.645 49.7686L565.799 88H39.5615L9.15137 49.7695L39.791 6H565.569Z" fill="#E8CFA6" stroke="#B68962" stroke-width="12"/>
<path fill-rule="evenodd" clip-rule="evenodd" d="M41.6555 86H126.162V23.5H32.668L12.668 50.4255L41.6555 86Z" fill="#A1940A"/>
<path fill-rule="evenodd" clip-rule="evenodd" d="M41.6555 10H126.162V23.5H32.668L41.6555 10Z" fill="#C2B016"/>
<path d="M131.162 5V91H39.2803L37.7793 89.1582L8.79199 53.584L6.33398 50.5674L8.6543 47.4443L28.5762 20.6221L37.4932 7.22949L38.9775 5H131.162Z" stroke="#6D411B" stroke-width="10"/>
<path fill-rule="evenodd" clip-rule="evenodd" d="M179.766 86L200.168 60.5L175.668 23.5H53.668V86H179.766Z" fill="#A1940A"/>
<path fill-rule="evenodd" clip-rule="evenodd" d="M179.766 10H53.668V23.5H175.668L200.168 60.5L209.168 50.4255L179.766 10Z" fill="#C2B016"/>
<path d="M182.312 5L183.81 7.05859L213.212 47.4844L215.585 50.748L212.896 53.7568L203.993 63.7217L183.671 89.124L182.169 91H48.668V5H182.312Z" stroke="#6D411B" stroke-width="10"/>
<rect x="41.668" y="24" width="123" height="62" fill="#A1940A"/>
<rect width="123" height="14" transform="matrix(1 0 0 -1 41.668 24)" fill="#C2B016"/>
</svg>
