<svg width="605" height="96" viewBox="0 0 605 96" fill="none" xmlns="http://www.w3.org/2000/svg">
<path d="M565.569 6L596.645 49.7686L565.799 88H39.5615L9.15137 49.7695L39.791 6H565.569Z" fill="#E8CFA6" stroke="#B68962" stroke-width="12"/>
<path fill-rule="evenodd" clip-rule="evenodd" d="M210.668 23.5V86H41.6555L12.668 50.4255L32.668 23.5H210.668Z" fill="#A1940A"/>
<path fill-rule="evenodd" clip-rule="evenodd" d="M210.668 10H41.6555L32.668 23.5H210.668V10Z" fill="#C2B016"/>
<path d="M215.668 5V91H39.2803L37.7793 89.1582L8.79199 53.584L6.33398 50.5674L8.6543 47.4443L28.5762 20.6221L37.4932 7.22949L38.9775 5H215.668Z" stroke="#6D411B" stroke-width="10"/>
<path fill-rule="evenodd" clip-rule="evenodd" d="M302.668 60.5L282.266 86H69.668V23.5H278.168L302.668 60.5Z" fill="#A1940A"/>
<path fill-rule="evenodd" clip-rule="evenodd" d="M69.668 10H282.266L311.668 50.4255L302.668 60.5L278.168 23.5H69.668V10Z" fill="#C2B016"/>
<path d="M284.812 5L286.31 7.05859L315.712 47.4844L318.085 50.748L315.396 53.7568L306.493 63.7217L286.171 89.124L284.669 91H64.668V5H284.812Z" stroke="#6D411B" stroke-width="10"/>
<rect x="44.668" y="24" width="218" height="62" fill="#A1940A"/>
</svg>
