<svg width="174" height="171" viewBox="0 0 174 171" fill="none" xmlns="http://www.w3.org/2000/svg">
<g clip-path="url(#paint0_diamond_292_104_clip_path)" data-figma-skip-parse="true"><g transform="matrix(0.0780522 0.109525 -0.109525 0.0534258 86.6631 88)"><rect x="0" y="0" width="897.12" height="1032.7" fill="url(#paint0_diamond_292_104)" opacity="1" shape-rendering="crispEdges"/><rect x="0" y="0" width="897.12" height="1032.7" transform="scale(1 -1)" fill="url(#paint0_diamond_292_104)" opacity="1" shape-rendering="crispEdges"/><rect x="0" y="0" width="897.12" height="1032.7" transform="scale(-1 1)" fill="url(#paint0_diamond_292_104)" opacity="1" shape-rendering="crispEdges"/><rect x="0" y="0" width="897.12" height="1032.7" transform="scale(-1)" fill="url(#paint0_diamond_292_104)" opacity="1" shape-rendering="crispEdges"/></g></g><path d="M86.6631 0L105.926 35.0765L143.228 20.5881L135.438 59.84L173.326 72.719L142.127 97.7799L162.873 132L122.865 131.144L116.761 170.693L86.6631 144.32L56.5653 170.693L50.4613 131.144L10.4529 132L31.1987 97.7799L0 72.719L37.8885 59.84L30.0978 20.5881L67.4005 35.0765L86.6631 0Z" data-figma-gradient-fill="{&#34;type&#34;:&#34;GRADIENT_DIAMOND&#34;,&#34;stops&#34;:[{&#34;color&#34;:{&#34;r&#34;:0.51964038610458374,&#34;g&#34;:0.94395804405212402,&#34;b&#34;:1.0,&#34;a&#34;:1.0},&#34;position&#34;:0.0},{&#34;color&#34;:{&#34;r&#34;:0.26837027072906494,&#34;g&#34;:0.82594060897827148,&#34;b&#34;:0.96101951599121094,&#34;a&#34;:1.0},&#34;position&#34;:0.39224141836166382},{&#34;color&#34;:{&#34;r&#34;:0.82121396064758301,&#34;g&#34;:0.93639481067657471,&#34;b&#34;:1.0,&#34;a&#34;:1.0},&#34;position&#34;:0.69174933433532715},{&#34;color&#34;:{&#34;r&#34;:0.31178423762321472,&#34;g&#34;:0.44628494977951050,&#34;b&#34;:0.60000002384185791,&#34;a&#34;:1.0},&#34;position&#34;:1.0}],&#34;stopsVar&#34;:[{&#34;color&#34;:{&#34;r&#34;:0.51964038610458374,&#34;g&#34;:0.94395804405212402,&#34;b&#34;:1.0,&#34;a&#34;:1.0},&#34;position&#34;:0.0},{&#34;color&#34;:{&#34;r&#34;:0.26837027072906494,&#34;g&#34;:0.82594060897827148,&#34;b&#34;:0.96101951599121094,&#34;a&#34;:1.0},&#34;position&#34;:0.39224141836166382},{&#34;color&#34;:{&#34;r&#34;:0.82121396064758301,&#34;g&#34;:0.93639481067657471,&#34;b&#34;:1.0,&#34;a&#34;:1.0},&#34;position&#34;:0.69174933433532715},{&#34;color&#34;:{&#34;r&#34;:0.31178423762321472,&#34;g&#34;:0.44628494977951050,&#34;b&#34;:0.60000002384185791,&#34;a&#34;:1.0},&#34;position&#34;:1.0}],&#34;transform&#34;:{&#34;m00&#34;:156.10433959960938,&#34;m01&#34;:-219.05035400390625,&#34;m02&#34;:118.13609313964844,&#34;m10&#34;:219.05035400390625,&#34;m11&#34;:106.85160827636719,&#34;m12&#34;:-74.950981140136719},&#34;opacity&#34;:1.0,&#34;blendMode&#34;:&#34;NORMAL&#34;,&#34;visible&#34;:true}"/>
<defs>
<clipPath id="paint0_diamond_292_104_clip_path"><path d="M86.6631 0L105.926 35.0765L143.228 20.5881L135.438 59.84L173.326 72.719L142.127 97.7799L162.873 132L122.865 131.144L116.761 170.693L86.6631 144.32L56.5653 170.693L50.4613 131.144L10.4529 132L31.1987 97.7799L0 72.719L37.8885 59.84L30.0978 20.5881L67.4005 35.0765L86.6631 0Z"/></clipPath><linearGradient id="paint0_diamond_292_104" x1="0" y1="0" x2="500" y2="500" gradientUnits="userSpaceOnUse">
<stop stop-color="#85F1FF"/>
<stop offset="0.392241" stop-color="#44D3F5"/>
<stop offset="0.691749" stop-color="#D1EFFF"/>
<stop offset="1" stop-color="#507299"/>
</linearGradient>
</defs>
</svg>
