<svg width="142" height="223" viewBox="0 0 142 223" fill="none" xmlns="http://www.w3.org/2000/svg">
<ellipse opacity="0.4" cx="68.5" cy="205.464" rx="53.5" ry="17.5" fill="#2C925F"/>
<g filter="url(#filter0_d_32_129)">
<path d="M89.708 0.963745C115.477 0.963745 136.367 18.267 136.367 39.6112C136.367 60.9552 115.477 78.2577 89.708 78.2577C84.0779 78.2577 78.6809 77.4314 73.6836 75.9178C68.6863 77.4314 63.2892 78.2577 57.6592 78.2577C31.8902 78.2577 11.0003 60.9552 11 39.6112C11 18.267 31.89 0.963779 57.6592 0.963745C63.2891 0.963745 68.6864 1.78912 73.6836 3.30261C78.6808 1.78909 84.078 0.963763 89.708 0.963745Z" fill="#3E2A26"/>
</g>
<path d="M136.117 58.4328C136.117 89.9682 110.795 95.7285 76.2939 95.7285C41.7924 95.7285 11.1763 89.9682 11.1763 58.4328C11.1763 26.8975 39.1453 30.1788 73.6469 30.1788C108.148 30.1788 136.117 26.8975 136.117 58.4328Z" fill="#FCE8DF"/>
<path d="M53.73 193.657L43.0259 147.41V141.964H94.0163L79.4615 198.464H55.4998L57.7026 193.875L53.73 193.657Z" fill="#5F4429"/>
<path d="M45.738 209.928C45.3157 208.546 45.9828 207.066 47.2973 206.468L53.7072 203.549C59.328 200.99 65.6759 200.514 71.6156 202.206L84 205.734C84 209.174 81.2107 211.964 77.77 211.964H48.4896C47.2245 211.964 46.1079 211.137 45.738 209.928Z" fill="#504131"/>
<path d="M53.7072 203.549C59.328 200.99 65.6759 200.514 71.6156 202.206L84 205.734L83.0933 200.104C81.5642 190.61 72.6745 184.118 63.1651 185.551L62.175 185.7C61.6438 185.78 61.1058 185.805 60.5695 185.775C55.6101 185.497 51.6479 189.847 52.3861 194.759L53.7072 203.549Z" fill="#504131"/>
<path d="M45.3273 205.668C45.3296 204.267 46.4261 202.924 47.9188 202.493L54.9896 200.453C61.2041 198.66 67.5754 199.024 72.8583 201.475L83.8106 206.555C82.7811 209.957 79.0903 212.333 75.567 211.862L47.552 208.115C46.2317 207.939 45.3251 206.941 45.3273 205.668Z" fill="#625140"/>
<path d="M54.9896 200.453C61.2041 198.66 67.5754 199.024 72.8583 201.475L83.8106 206.555L84.7368 199.992C86.0154 190.933 79.2416 183.707 69.6367 183.885L68.6113 183.904C68.0429 183.915 67.4841 183.867 66.9446 183.762C62.2153 182.844 57.1244 186.382 56.4114 191.081L54.9896 200.453Z" fill="#625140"/>
<path d="M83.9677 103.155C82.1178 102.454 80.4623 101.921 78.7676 101.557V103.087H79.4176L79.8076 104.018L83.9677 103.155Z" fill="#374A2D"/>
<path fill-rule="evenodd" clip-rule="evenodd" d="M68.1075 102.076V101.199C68.6468 101.151 69.1661 101.11 69.6675 101.077C73.3869 100.829 76.125 100.988 78.7676 101.557L76.8495 103.694L69.6675 106.188L67.2664 104.065L67.6424 103.176L68.1075 102.076Z" fill="white"/>
<path d="M69.6675 106.188L67.7285 105.127L67.2664 107.806L67.7285 108.011L69.6675 108.871L71.9138 108.011L72.4491 107.806V105.587L69.6675 106.188Z" fill="white"/>
<path d="M77.4676 104.503L72.4491 105.587L75.6476 106.565L78.1383 105.972L77.4676 104.503Z" fill="white"/>
<path d="M65.7895 104.065L63.4715 105.177L63.3399 105.587L65.5075 106.565L67.7285 105.127L65.7895 104.065Z" fill="white"/>
<path fill-rule="evenodd" clip-rule="evenodd" d="M68.1075 102.952V102.076L67.6424 103.176L68.1075 102.952Z" fill="#CACACA"/>
<path d="M69.6675 106.188L67.2664 104.065L67.6424 103.176L65.7895 104.065L67.7285 105.127L69.6675 106.188Z" fill="white"/>
<path d="M76.8495 103.694L69.6675 106.188L72.4491 105.587L77.4676 104.503L79.8076 104.018L79.4176 103.087H78.7676V101.557L76.8495 103.694Z" fill="white"/>
<path d="M63.4715 105.177L59.3974 107.132C59.3741 108.259 59.9003 109.288 60.7043 110.254C61.6041 111.336 62.8518 112.34 64.067 113.318C64.3546 113.549 64.6405 113.78 64.9195 114.009C65.8482 114.772 66.7008 115.526 67.2911 116.297C67.8398 117.014 68.1618 117.745 68.1075 118.51L67.2911 116.297L65.3754 111.105L63.3399 105.587L63.4715 105.177Z" fill="white"/>
<path d="M75.6476 107.469L78.6376 107.065L78.1383 105.972L75.6476 106.565L72.4491 105.587V107.806L71.9138 108.011L73.2488 110.254C73.929 109.378 74.7185 108.462 75.6476 107.469Z" fill="white"/>
<path fill-rule="evenodd" clip-rule="evenodd" d="M68.1075 102.952V102.076L67.6424 103.176L68.1075 102.952ZM68.4233 121.014L68.1075 118.51L67.2911 116.297C66.7008 115.526 65.8482 114.772 64.9195 114.009V111.704L65.3754 111.105L63.3399 105.587L65.5075 106.565L67.7285 105.127L67.2664 107.806L67.7285 108.011L69.6675 108.871L71.9138 108.011L73.2488 110.254C70.5513 113.728 69.5723 116.568 68.4233 121.014Z" fill="white"/>
<path fill-rule="evenodd" clip-rule="evenodd" d="M56.2379 142.974L56.223 143.083C56.2278 143.046 56.2328 143.01 56.2379 142.974Z" fill="#CF9861"/>
<path fill-rule="evenodd" clip-rule="evenodd" d="M67.143 122.398C66.5739 123.809 65.798 125.225 64.9195 126.651V119.449L67.143 122.398Z" fill="#6C9D53"/>
<path d="M67.2911 116.297C66.7008 115.526 65.8482 114.772 64.9195 114.009V119.449L67.143 122.398C67.6671 121.098 68.0158 119.803 68.1075 118.51L67.2911 116.297Z" fill="#5E734C"/>
<path fill-rule="evenodd" clip-rule="evenodd" d="M64.9195 119.449V126.651C64.124 127.941 63.2442 129.239 62.3578 130.548C59.6321 134.57 56.8424 138.687 56.2379 142.974L60.2877 113.307L64.9195 119.449Z" fill="#6C9D53"/>
<path d="M64.9195 114.009C64.6405 113.78 64.3546 113.549 64.067 113.318C62.8518 112.34 61.6041 111.336 60.7043 110.254L60.2877 113.307L64.9195 119.449V114.009Z" fill="#5E734C"/>
<path d="M65.5075 101.469L58.6174 103.694L59.7874 104.941L56.5099 108.297L60.2877 113.307L60.7043 110.254C59.9003 109.288 59.3741 108.259 59.3974 107.132L63.4715 105.177L65.7895 104.065L67.6424 103.176L68.1075 102.076V101.199C67.2894 101.272 66.4252 101.362 65.5075 101.469Z" fill="#5E734C"/>
<path d="M59.7874 104.941L56.7974 106.188L51.3373 107.806L42.4972 133.154V136.929L40.7422 142.052C46.1153 144.126 51.0152 145.587 55.7808 146.511C55.9991 144.809 56.1615 143.548 56.2227 143.085L56.223 143.083L56.223 143.083L56.2379 142.974C56.2328 143.01 56.2278 143.046 56.223 143.083L56.223 143.083L56.2227 143.085C56.1615 143.548 55.9991 144.809 55.7808 146.511C58.8526 147.106 61.8686 147.477 64.9195 147.645V126.651C64.124 127.941 63.2442 129.239 62.3578 130.548C59.6321 134.57 56.8424 138.687 56.2379 142.974L56.223 143.083C56.2278 143.046 56.2328 143.01 56.2379 142.974L60.2877 113.307L56.5099 108.297L59.7874 104.941Z" fill="#6C9D53"/>
<path fill-rule="evenodd" clip-rule="evenodd" d="M69.5155 129.675L64.9195 147.645V126.651C65.798 125.225 66.5739 123.809 67.143 122.398L68.6559 122.859L69.5155 129.675Z" fill="#6C9D53"/>
<path d="M68.4233 121.014L68.1075 118.51C68.0158 119.803 67.6671 121.098 67.143 122.398L68.6559 122.859L68.4233 121.014Z" fill="#5E734C"/>
<path fill-rule="evenodd" clip-rule="evenodd" d="M73.5221 114.009L69.5155 129.675L68.6559 122.859L73.5221 114.009Z" fill="#6C9D53"/>
<path d="M74.1115 111.704L73.2488 110.254C70.5513 113.728 69.5723 116.568 68.4233 121.014L68.6559 122.859L73.5221 114.009L74.1115 111.704Z" fill="#5E734C"/>
<path fill-rule="evenodd" clip-rule="evenodd" d="M74.1622 147.567C70.9886 147.779 67.937 147.812 64.9195 147.645L69.5155 129.675L73.5221 114.009L75.79 111.105C76.126 121.961 75.7673 135.309 74.1622 147.567Z" fill="#6C9D53"/>
<path d="M75.6476 107.469C74.7185 108.462 73.929 109.378 73.2488 110.254L74.1115 111.704L73.5221 114.009L75.79 111.105C75.7514 109.858 75.7037 108.645 75.6476 107.469Z" fill="#5E734C"/>
<path fill-rule="evenodd" clip-rule="evenodd" d="M100.868 110.84C100.218 110.368 85.2677 105.514 85.2677 105.514L79.4176 107.806L75.79 111.105C76.126 121.961 75.7673 135.309 74.1622 147.567C81.6975 147.063 89.9202 145.548 100.005 143.28L99.5678 133.154C99.5678 133.154 101.518 111.312 100.868 110.84Z" fill="#6C9D53"/>
<path d="M78.6376 107.065L75.6476 107.469C75.7037 108.645 75.7514 109.858 75.79 111.105L79.4176 107.806L85.2677 105.514L85.1377 104.773H84.2277L83.9677 103.155L79.8076 104.018L77.4676 104.503L78.1383 105.972L78.6376 107.065Z" fill="#5E734C"/>
<path d="M42.0005 144.929L43.2602 138.964C59.961 143.278 71.0585 144.932 86.7187 144.006C90.4991 143.782 94.5453 143.408 99.0005 142.885L95.5364 157.964L91.8624 155.257L85.8789 157.964L86.3886 149.493C65.956 150.83 55.0995 149.738 42.0005 144.929Z" fill="#FFFABD"/>
<ellipse cx="98.9563" cy="148.635" rx="6.9563" ry="4.67107" fill="#FCE8DF"/>
<ellipse cx="29.9563" cy="138.635" rx="6.9563" ry="4.67107" fill="#FCE8DF"/>
<path d="M101.931 111.215L98.8706 110.152L94.0788 134.513L115.264 136.347L101.931 111.215Z" fill="#6C9D53"/>
<path d="M107.218 150.989L118 141.505L115.264 136.347L94.0788 134.513L91.8447 145.871L107.218 150.989Z" fill="#6C9D53"/>
<path fill-rule="evenodd" clip-rule="evenodd" d="M33.285 142.769L21.6928 133.792L35.678 120.698L48.0556 129.339L45.0365 142.769L33.285 142.769Z" fill="#6C9D53"/>
<path d="M49.6633 107.605L53.0459 107.141L48.0556 129.339L35.678 120.698L49.6633 107.605Z" fill="#6C9D53"/>
<ellipse cx="47.1764" cy="71.3755" rx="5.29412" ry="8.47059" fill="#5F483A"/>
<ellipse cx="89.529" cy="71.3755" rx="5.29412" ry="8.47059" fill="#5F483A"/>
<circle cx="99.588" cy="79.3168" r="0.433042" fill="#796D66" stroke="#FCE8DF" stroke-width="0.192739"/>
<circle cx="101.706" cy="79.3168" r="0.433042" fill="#796D66" stroke="#FCE8DF" stroke-width="0.192739"/>
<circle cx="100.647" cy="80.3757" r="0.433042" fill="#796D66" stroke="#FCE8DF" stroke-width="0.192739"/>
<circle cx="103.823" cy="79.3168" r="0.433042" fill="#796D66" stroke="#FCE8DF" stroke-width="0.192739"/>
<circle cx="102.764" cy="80.3757" r="0.433042" fill="#796D66" stroke="#FCE8DF" stroke-width="0.192739"/>
<circle cx="34.9996" cy="80.3756" r="0.433042" fill="#796D66" stroke="#FCE8DF" stroke-width="0.192739"/>
<circle cx="37.1173" cy="80.3756" r="0.433042" fill="#796D66" stroke="#FCE8DF" stroke-width="0.192739"/>
<circle cx="36.0582" cy="81.4343" r="0.433042" fill="#796D66" stroke="#FCE8DF" stroke-width="0.192739"/>
<circle cx="39.235" cy="80.3756" r="0.433042" fill="#796D66" stroke="#FCE8DF" stroke-width="0.192739"/>
<circle cx="38.1764" cy="81.4343" r="0.433042" fill="#796D66" stroke="#FCE8DF" stroke-width="0.192739"/>
<path d="M21.9659 22.9637L39.9921 26.7034L87.2609 22.9637L127.92 24.2533L141.94 43.0805C142.47 55.4077 139.602 61.7674 127.92 71.9662C129.855 61.5871 128.174 55.7492 117.906 45.2727C107.578 52.0314 104.353 56.2315 107.49 65.1316C99.9891 59.4713 98.1178 56.3142 98.0766 50.6888C95.3028 56.5178 92.1602 59.7227 79.049 65.1316C85.3617 61.0101 87.6514 58.6034 81.6527 53.5258C63.1512 57.3439 58.2921 61.4236 53.4116 70.0319C49.0441 62.859 48.8667 59.2079 53.4116 53.5258C53.4116 53.5258 42.7962 58.2971 39.9921 65.1316C37.188 71.9662 39.9921 73.7715 39.9921 73.7715L28.1749 70.0319L35.9863 53.5258C23.2027 60.5029 16.3358 64.5982 10.7496 75.9637C-0.435055 66.7471 -0.986523 61.0653 0.734994 50.6888C1.01866 37.6383 7.7129 32.1361 21.9659 22.9637Z" fill="#3E2A26"/>
<defs>
<filter id="filter0_d_32_129" x="9.07261" y="5.02467e-05" width="129.222" height="81.1487" filterUnits="userSpaceOnUse" color-interpolation-filters="sRGB">
<feFlood flood-opacity="0" result="BackgroundImageFix"/>
<feColorMatrix in="SourceAlpha" type="matrix" values="0 0 0 0 0 0 0 0 0 0 0 0 0 0 0 0 0 0 127 0" result="hardAlpha"/>
<feOffset dy="0.963695"/>
<feGaussianBlur stdDeviation="0.963695"/>
<feComposite in2="hardAlpha" operator="out"/>
<feColorMatrix type="matrix" values="0 0 0 0 0.87451 0 0 0 0 0.639216 0 0 0 0 0.498039 0 0 0 1 0"/>
<feBlend mode="normal" in2="BackgroundImageFix" result="effect1_dropShadow_32_129"/>
<feBlend mode="normal" in="SourceGraphic" in2="effect1_dropShadow_32_129" result="shape"/>
</filter>
</defs>
</svg>
