<svg width="160" height="236" viewBox="0 0 160 236" fill="none" xmlns="http://www.w3.org/2000/svg">
<ellipse opacity="0.4" cx="72.5" cy="222" rx="43.5" ry="14" fill="#2C925F"/>
<rect x="80.2581" y="197" width="11" height="30" rx="3" transform="rotate(14.0007 80.2581 197)" fill="#FCE8DF"/>
<rect x="74.2097" y="221.257" width="11" height="5" rx="2.5" transform="rotate(14.0007 74.2097 221.257)" fill="#592907"/>
<rect x="61" y="200.398" width="11" height="30" rx="3" transform="rotate(-7.301 61 200.398)" fill="#FCE8DF"/>
<rect x="64.177" y="225.195" width="11" height="5" rx="2.5" transform="rotate(-7.301 64.177 225.195)" fill="#592907"/>
<path d="M160 133.754C135.635 110.156 160 88.4315 128.297 69.4594L11.8885 67C-2.87957 94.4417 11.8884 110.917 0 138.673C24.6497 154.692 113.193 155.008 149.102 140.15C153.664 138.262 157.376 136.13 160 133.754Z" fill="#5E443B"/>
<g filter="url(#filter0_d_221_153)">
<path d="M90.8845 32C116.654 32 137.544 49.3033 137.544 70.6475C137.543 91.9915 116.654 109.294 90.8845 109.294C85.2544 109.294 79.8574 108.468 74.8601 106.954C69.8628 108.468 64.4657 109.294 58.8357 109.294C33.0667 109.294 12.1768 91.9914 12.1765 70.6475C12.1765 49.3033 33.0665 32 58.8357 32C64.4656 32 69.8629 32.8254 74.8601 34.3389C79.8573 32.8253 85.2546 32 90.8845 32Z" fill="#5E443B"/>
</g>
<path d="M137.118 98.4691C137.118 130.004 111.796 135.765 77.2942 135.765C42.7926 135.765 12.1765 130.004 12.1765 98.4691C12.1765 66.9337 40.1455 70.215 74.6471 70.215C109.149 70.215 137.118 66.9337 137.118 98.4691Z" fill="#FCE8DF"/>
<path d="M3.17661 109.294C-5.42961 89.959 5.84157 72.5751 20.1178 57.4119H128.118C140.176 76.4687 143.387 94.5871 136.121 109.294H122.721C112.128 102.909 108.749 99.3083 108.826 92.8277C104.833 99.8589 105.113 103.544 113.788 109.294H95.9227C84.637 103.781 81.1903 100.277 83.516 92.8277C77.3542 99.3642 76.0064 102.977 79.0495 109.294H62.6726C55.707 103.942 56.6227 100.196 62.6726 92.8277C50.2905 97.7111 49.3117 101.559 52.2509 109.294H36.3702C28.9277 101.5 30.715 97.1293 36.3702 89.3348C27.5637 95.4783 26.0518 100.07 26.4448 109.294H3.17661Z" fill="#5E443B"/>
<g filter="url(#filter1_f_221_153)">
<ellipse cx="74.6471" cy="121.471" rx="27.5294" ry="3.70588" fill="#FD9F9F" fill-opacity="0.5"/>
</g>
<path fill-rule="evenodd" clip-rule="evenodd" d="M50.6092 175.777C54.2468 177.644 59.1798 176.829 61.6274 173.958L48.4545 167.199C46.0069 170.07 46.9716 173.911 50.6092 175.777Z" fill="#FCE8DF"/>
<path d="M59.4727 165.379C55.8351 163.513 50.9021 164.328 48.4545 167.199L61.6274 173.958C64.075 171.086 63.1103 167.246 59.4727 165.379Z" fill="#592907"/>
<path d="M61.2514 174.028C58.8508 176.638 54.2222 177.367 50.7652 175.594C47.3085 173.82 46.3624 170.23 48.5181 167.495L61.2514 174.028ZM59.3158 165.563C62.7729 167.336 63.7196 170.926 61.5638 173.662L48.8304 167.129C51.2309 164.519 55.8588 163.789 59.3158 165.563Z" stroke="#57391B" stroke-width="0.481847"/>
<path fill-rule="evenodd" clip-rule="evenodd" d="M98.1413 175.777C94.5037 177.644 89.5707 176.829 87.1231 173.958L100.296 167.199C102.744 170.07 101.779 173.911 98.1413 175.777Z" fill="#FCE8DF"/>
<path d="M89.2778 165.379C92.9154 163.513 97.8484 164.328 100.296 167.199L87.1231 173.958C84.6755 171.086 85.6402 167.246 89.2778 165.379Z" fill="#592907"/>
<path d="M87.4991 174.028C89.8997 176.638 94.5282 177.367 97.9853 175.594C101.442 173.82 102.388 170.23 100.232 167.495L87.4991 174.028ZM89.4347 165.563C85.9776 167.336 85.0308 170.926 87.1867 173.662L99.9201 167.129C97.5195 164.519 92.8917 163.789 89.4347 165.563Z" stroke="#57391B" stroke-width="0.481847"/>
<ellipse cx="49" cy="111.5" rx="5" ry="6.5" fill="#3E2A26"/>
<ellipse cx="87" cy="111.5" rx="5" ry="6.5" fill="#3E2A26"/>
<path d="M17.5599 55.2942H132.325L134.47 68.0001L10.5881 71.1765C12.38 65.2518 13.9767 61.7898 17.5599 55.2942Z" fill="#5E443B"/>
<circle cx="100.588" cy="119.353" r="0.433042" fill="#796D66" stroke="#FCE8DF" stroke-width="0.192739"/>
<circle cx="102.706" cy="119.353" r="0.433042" fill="#796D66" stroke="#FCE8DF" stroke-width="0.192739"/>
<circle cx="101.647" cy="120.412" r="0.433042" fill="#796D66" stroke="#FCE8DF" stroke-width="0.192739"/>
<circle cx="104.824" cy="119.353" r="0.433042" fill="#796D66" stroke="#FCE8DF" stroke-width="0.192739"/>
<circle cx="103.765" cy="120.412" r="0.433042" fill="#796D66" stroke="#FCE8DF" stroke-width="0.192739"/>
<circle cx="35.9999" cy="120.412" r="0.433042" fill="#796D66" stroke="#FCE8DF" stroke-width="0.192739"/>
<circle cx="38.1178" cy="120.412" r="0.433042" fill="#796D66" stroke="#FCE8DF" stroke-width="0.192739"/>
<circle cx="37.0585" cy="121.471" r="0.433042" fill="#796D66" stroke="#FCE8DF" stroke-width="0.192739"/>
<circle cx="40.2352" cy="120.412" r="0.433042" fill="#796D66" stroke="#FCE8DF" stroke-width="0.192739"/>
<circle cx="39.1764" cy="121.471" r="0.433042" fill="#796D66" stroke="#FCE8DF" stroke-width="0.192739"/>
<path d="M86.1599 143.39C77.3519 147.261 71.1162 149.823 67.2392 149.22L72.1015 153.852L86.1599 150.092V143.39Z" fill="#FFFDFD"/>
<path d="M67.2392 149.22C64.6872 148.824 63.1572 147.057 62.5883 143.39C62.5883 143.39 59.9474 147.317 57.5591 151.512L62.5883 153.852L67.2392 149.22Z" fill="white"/>
<path d="M59.3115 176.658L86.1599 177.557V169.547V150.092L72.1015 153.852L67.2392 149.22L62.5883 153.852L57.5591 151.512C55.7275 154.729 54.0444 158.103 53.815 159.983C53.5604 162.07 54.8269 166.017 56.208 169.547C56.6627 170.709 57.1298 171.826 57.5591 172.816C58.5324 175.062 59.3115 176.658 59.3115 176.658Z" fill="#DB9455"/>
<path d="M86.1599 177.557L59.3115 176.658C59.3115 176.658 58.5324 175.062 57.5591 172.816L37.7483 197.012L35 211.97L47.2615 210.09L53.815 219L104.296 214.096L111 197.012L86.1599 169.547V177.557Z" fill="#B16144"/>
<path fill-rule="evenodd" clip-rule="evenodd" d="M56.208 169.547C54.8269 166.017 53.5604 162.07 53.815 159.983C54.0444 158.103 55.7275 154.729 57.5591 151.512C59.9474 147.317 62.5883 143.39 62.5883 143.39L60.1572 142L49.6926 153.852L44.3018 164.887L47.2615 168.321H49.6926L52.758 169.547H56.208Z" fill="#B16144"/>
<path d="M89.8595 142L86.1599 143.39V150.092V169.547C97.7305 170.456 101.651 168.957 104.764 163.253L102.861 162.354L104.764 160.719L89.8595 142Z" fill="#B16144"/>
<path d="M74.5748 38.5001C74.116 30 73.5744 10.8 29.5744 0C26.9077 12.8333 32.1748 38.5001 74.5748 38.5001Z" fill="#31444B"/>
<path d="M74.5748 38.5001C75.0742 29.5 75.5747 10.8001 119.575 5.28097e-05C122.241 12.8334 116.975 38.5001 74.5748 38.5001Z" fill="#31444B"/>
<defs>
<filter id="filter0_d_221_153" x="10.2491" y="31.0363" width="129.222" height="81.1487" filterUnits="userSpaceOnUse" color-interpolation-filters="sRGB">
<feFlood flood-opacity="0" result="BackgroundImageFix"/>
<feColorMatrix in="SourceAlpha" type="matrix" values="0 0 0 0 0 0 0 0 0 0 0 0 0 0 0 0 0 0 127 0" result="hardAlpha"/>
<feOffset dy="0.963695"/>
<feGaussianBlur stdDeviation="0.963695"/>
<feComposite in2="hardAlpha" operator="out"/>
<feColorMatrix type="matrix" values="0 0 0 0 0.87451 0 0 0 0 0.639216 0 0 0 0 0.498039 0 0 0 1 0"/>
<feBlend mode="normal" in2="BackgroundImageFix" result="effect1_dropShadow_221_153"/>
<feBlend mode="normal" in="SourceGraphic" in2="effect1_dropShadow_221_153" result="shape"/>
</filter>
<filter id="filter1_f_221_153" x="43.2629" y="113.91" width="62.7684" height="15.1213" filterUnits="userSpaceOnUse" color-interpolation-filters="sRGB">
<feFlood flood-opacity="0" result="BackgroundImageFix"/>
<feBlend mode="normal" in="SourceGraphic" in2="BackgroundImageFix" result="shape"/>
<feGaussianBlur stdDeviation="1.92739" result="effect1_foregroundBlur_221_153"/>
</filter>
</defs>
</svg>
