<svg width="87" height="88" viewBox="0 0 87 88" fill="none" xmlns="http://www.w3.org/2000/svg">
<ellipse opacity="0.4" cx="43.5" cy="74.0005" rx="43.5" ry="14" fill="#2C925F"/>
<g filter="url(#filter0_n_109_293)">
<path d="M74.948 50.6648C77.2293 52.6694 80.3803 52.8132 81.9859 50.986C84.5527 48.3982 83.1701 45.9087 80.8888 43.9041C78.6075 41.8995 75.2141 40.5321 72.9811 43.0734C71.2536 45.0393 72.6668 48.6602 74.948 50.6648Z" fill="#B01F10"/>
</g>
<g filter="url(#filter1_n_109_293)">
<path d="M34.6997 74.9715C31.7311 74.3314 29.7401 71.885 30.2527 69.5072C30.8046 65.9043 33.628 65.5336 36.5966 66.1737C39.5653 66.8138 42.6838 68.7268 41.9708 72.0338C41.4192 74.592 37.6684 75.6116 34.6997 74.9715Z" fill="#AB2011"/>
</g>
<g filter="url(#filter2_n_109_293)">
<path d="M52.7178 75.2824C55.727 74.8726 57.9003 72.5866 57.5721 70.1765C57.2991 66.5418 54.5126 65.955 51.5034 66.3647C48.4943 66.7745 45.2379 68.4419 45.6943 71.794C46.0474 74.387 49.7087 75.6922 52.7178 75.2824Z" fill="#AB2011"/>
</g>
<g filter="url(#filter3_n_109_293)">
<path d="M78.5732 48.5005C78.5732 62.3076 63.1271 73.5005 44.0732 73.5005C15.5732 74.5005 8.07324 62.3076 8.07324 48.5005C8.07324 34.6934 17.5732 19.0005 44.0732 19.0005C64.5732 19.0005 78.5732 34.6934 78.5732 48.5005Z" fill="#FF402C"/>
</g>
<g filter="url(#filter4_n_109_293)">
<path d="M11.4719 50.9218C10.2199 53.6886 7.40848 55.1186 5.1924 54.1158C1.78699 52.8163 2.0203 49.9783 3.27229 47.2114C4.52428 44.4446 7.05218 41.7999 10.1343 43.1946C12.5186 44.2735 12.7239 48.155 11.4719 50.9218Z" fill="#B01F10"/>
</g>
<g filter="url(#filter5_n_109_293)">
<path fill-rule="evenodd" clip-rule="evenodd" d="M54.0083 25.5297C54.4884 25.7384 55.0433 25.682 55.4712 25.3803L65.4008 18.3774C66.713 17.4511 65.8475 15.389 64.2671 15.6762L54.6499 17.4272L56.7153 13.8002C57.3972 12.6011 55.3546 11.2451 54.0424 12.0258L48.1596 15.5307C48.1355 15.545 48.1082 15.5574 48.0805 15.5678L45.187 16.6459C45.4768 11.839 46.1314 7.9774 47.5786 2.55998C47.8887 1.39781 47.129 0.2141 45.9399 0.0326366L45.8735 0.022871C44.8978 -0.125729 43.9571 0.461201 43.6743 1.40666C41.9673 7.1213 41.2662 11.1358 41.0727 16.4985L40.3755 15.7787C40.3473 15.7497 40.3228 15.7183 40.3042 15.686L37.3296 10.5043C36.6225 9.27342 34.2546 9.34961 34.0708 10.6088L33.1831 16.7143C33.1489 16.9503 33.2091 17.1891 33.3452 17.4057L23.8481 15.6762C22.2673 15.3885 21.4015 17.4512 22.7143 18.3774L32.644 25.3803C33.0719 25.6819 33.6268 25.7385 34.1069 25.5297L43.6557 21.3764C43.8049 21.3114 43.9398 21.2234 44.0571 21.1186C44.1746 21.2237 44.3099 21.3113 44.4594 21.3764L54.0083 25.5297Z" fill="#63A34E"/>
</g>
<g filter="url(#filter6_n_109_293)">
<path d="M69.9044 36.1717C70.2799 36.9918 70.0083 37.9638 69.2942 38.5149C68.2813 39.2966 66.7991 38.9445 66.189 37.8197C64.9519 35.5389 63.7359 33.9681 61.9782 32.3265C61.0369 31.4473 61.0515 29.9213 62.0712 29.1344C62.7837 28.5845 63.7835 28.5718 64.4814 29.1402C67.0555 31.2363 68.4843 33.0699 69.9044 36.1717Z" fill="#E26C5E"/>
</g>
<g filter="url(#filter7_n_109_293)">
<path d="M72.7571 41.6074C72.8141 42.142 72.5441 42.6502 72.1184 42.9787L71.3323 43.5853C70.5772 44.168 69.5182 43.5546 68.937 42.7983C68.3486 42.0324 68.1013 40.8832 68.866 40.2931L69.6227 39.7091C70.0377 39.3888 70.583 39.2588 71.0747 39.4407C72.1622 39.8429 72.6319 40.4331 72.7571 41.6074Z" fill="#E26C5E"/>
</g>
<ellipse cx="36.0732" cy="43.1216" rx="6" ry="9.5" fill="#3C1212"/>
<ellipse cx="55.0732" cy="43.1216" rx="6" ry="9.5" fill="#3C1212"/>
<ellipse cx="57.0732" cy="41.6216" rx="2" ry="4" fill="white"/>
<ellipse cx="38.0732" cy="41.6216" rx="2" ry="4" fill="white"/>
<g filter="url(#filter8_d_109_293)">
<ellipse cx="20.5732" cy="52.6216" rx="3.5" ry="2" fill="#FF7575"/>
</g>
<g filter="url(#filter9_d_109_293)">
<ellipse cx="68.5732" cy="52.6216" rx="3.5" ry="2" fill="#FF7575"/>
</g>
<defs>
<filter id="filter0_n_109_293" x="72.2119" y="41.6896" width="11.1562" height="10.5781" filterUnits="userSpaceOnUse" color-interpolation-filters="sRGB">
<feFlood flood-opacity="0" result="BackgroundImageFix"/>
<feBlend mode="normal" in="SourceGraphic" in2="BackgroundImageFix" result="shape"/>
<feTurbulence type="fractalNoise" baseFrequency="2 2" stitchTiles="stitch" numOctaves="3" result="noise" seed="6898" />
<feColorMatrix in="noise" type="luminanceToAlpha" result="alphaNoise" />
<feComponentTransfer in="alphaNoise" result="coloredNoise1">
<feFuncA type="discrete" tableValues="1 1 1 1 1 1 1 1 1 1 1 1 1 1 1 1 1 1 1 1 1 1 1 1 1 1 1 1 1 1 1 1 1 1 1 1 1 1 1 1 1 1 1 1 1 1 1 1 1 1 1 0 0 0 0 0 0 0 0 0 0 0 0 0 0 0 0 0 0 0 0 0 0 0 0 0 0 0 0 0 0 0 0 0 0 0 0 0 0 0 0 0 0 0 0 0 0 0 0 0 "/>
</feComponentTransfer>
<feComposite operator="in" in2="shape" in="coloredNoise1" result="noise1Clipped" />
<feFlood flood-color="rgba(93, 49, 49, 0.25)" result="color1Flood" />
<feComposite operator="in" in2="noise1Clipped" in="color1Flood" result="color1" />
<feMerge result="effect1_noise_109_293">
<feMergeNode in="shape" />
<feMergeNode in="color1" />
</feMerge>
</filter>
<filter id="filter1_n_109_293" x="30.1719" y="65.9178" width="11.9023" height="9.23975" filterUnits="userSpaceOnUse" color-interpolation-filters="sRGB">
<feFlood flood-opacity="0" result="BackgroundImageFix"/>
<feBlend mode="normal" in="SourceGraphic" in2="BackgroundImageFix" result="shape"/>
<feTurbulence type="fractalNoise" baseFrequency="2 2" stitchTiles="stitch" numOctaves="3" result="noise" seed="6898" />
<feColorMatrix in="noise" type="luminanceToAlpha" result="alphaNoise" />
<feComponentTransfer in="alphaNoise" result="coloredNoise1">
<feFuncA type="discrete" tableValues="1 1 1 1 1 1 1 1 1 1 1 1 1 1 1 1 1 1 1 1 1 1 1 1 1 1 1 1 1 1 1 1 1 1 1 1 1 1 1 1 1 1 1 1 1 1 1 1 1 1 1 0 0 0 0 0 0 0 0 0 0 0 0 0 0 0 0 0 0 0 0 0 0 0 0 0 0 0 0 0 0 0 0 0 0 0 0 0 0 0 0 0 0 0 0 0 0 0 0 0 "/>
</feComponentTransfer>
<feComposite operator="in" in2="shape" in="coloredNoise1" result="noise1Clipped" />
<feFlood flood-color="rgba(93, 49, 49, 0.25)" result="color1Flood" />
<feComposite operator="in" in2="noise1Clipped" in="color1Flood" result="color1" />
<feMerge result="effect1_noise_109_293">
<feMergeNode in="shape" />
<feMergeNode in="color1" />
</feMerge>
</filter>
<filter id="filter2_n_109_293" x="45.6514" y="66.2522" width="11.9531" height="9.10437" filterUnits="userSpaceOnUse" color-interpolation-filters="sRGB">
<feFlood flood-opacity="0" result="BackgroundImageFix"/>
<feBlend mode="normal" in="SourceGraphic" in2="BackgroundImageFix" result="shape"/>
<feTurbulence type="fractalNoise" baseFrequency="2 2" stitchTiles="stitch" numOctaves="3" result="noise" seed="6898" />
<feColorMatrix in="noise" type="luminanceToAlpha" result="alphaNoise" />
<feComponentTransfer in="alphaNoise" result="coloredNoise1">
<feFuncA type="discrete" tableValues="1 1 1 1 1 1 1 1 1 1 1 1 1 1 1 1 1 1 1 1 1 1 1 1 1 1 1 1 1 1 1 1 1 1 1 1 1 1 1 1 1 1 1 1 1 1 1 1 1 1 1 0 0 0 0 0 0 0 0 0 0 0 0 0 0 0 0 0 0 0 0 0 0 0 0 0 0 0 0 0 0 0 0 0 0 0 0 0 0 0 0 0 0 0 0 0 0 0 0 0 "/>
</feComponentTransfer>
<feComposite operator="in" in2="shape" in="coloredNoise1" result="noise1Clipped" />
<feFlood flood-color="rgba(93, 49, 49, 0.25)" result="color1Flood" />
<feComposite operator="in" in2="noise1Clipped" in="color1Flood" result="color1" />
<feMerge result="effect1_noise_109_293">
<feMergeNode in="shape" />
<feMergeNode in="color1" />
</feMerge>
</filter>
<filter id="filter3_n_109_293" x="8.07324" y="19.0005" width="70.5" height="54.5575" filterUnits="userSpaceOnUse" color-interpolation-filters="sRGB">
<feFlood flood-opacity="0" result="BackgroundImageFix"/>
<feBlend mode="normal" in="SourceGraphic" in2="BackgroundImageFix" result="shape"/>
<feTurbulence type="fractalNoise" baseFrequency="2 2" stitchTiles="stitch" numOctaves="3" result="noise" seed="6898" />
<feColorMatrix in="noise" type="luminanceToAlpha" result="alphaNoise" />
<feComponentTransfer in="alphaNoise" result="coloredNoise1">
<feFuncA type="discrete" tableValues="1 1 1 1 1 1 1 1 1 1 1 1 1 1 1 1 1 1 1 1 1 1 1 1 1 1 1 1 1 1 1 1 1 1 1 1 1 1 1 1 1 1 1 1 1 1 1 1 1 1 1 0 0 0 0 0 0 0 0 0 0 0 0 0 0 0 0 0 0 0 0 0 0 0 0 0 0 0 0 0 0 0 0 0 0 0 0 0 0 0 0 0 0 0 0 0 0 0 0 0 "/>
</feComponentTransfer>
<feComposite operator="in" in2="shape" in="coloredNoise1" result="noise1Clipped" />
<feFlood flood-color="rgba(93, 49, 49, 0.25)" result="color1Flood" />
<feComposite operator="in" in2="noise1Clipped" in="color1Flood" result="color1" />
<feMerge result="effect1_noise_109_293">
<feMergeNode in="shape" />
<feMergeNode in="color1" />
</feMerge>
</filter>
<filter id="filter4_n_109_293" x="2.42676" y="42.8102" width="9.80176" height="11.626" filterUnits="userSpaceOnUse" color-interpolation-filters="sRGB">
<feFlood flood-opacity="0" result="BackgroundImageFix"/>
<feBlend mode="normal" in="SourceGraphic" in2="BackgroundImageFix" result="shape"/>
<feTurbulence type="fractalNoise" baseFrequency="2 2" stitchTiles="stitch" numOctaves="3" result="noise" seed="6898" />
<feColorMatrix in="noise" type="luminanceToAlpha" result="alphaNoise" />
<feComponentTransfer in="alphaNoise" result="coloredNoise1">
<feFuncA type="discrete" tableValues="1 1 1 1 1 1 1 1 1 1 1 1 1 1 1 1 1 1 1 1 1 1 1 1 1 1 1 1 1 1 1 1 1 1 1 1 1 1 1 1 1 1 1 1 1 1 1 1 1 1 1 0 0 0 0 0 0 0 0 0 0 0 0 0 0 0 0 0 0 0 0 0 0 0 0 0 0 0 0 0 0 0 0 0 0 0 0 0 0 0 0 0 0 0 0 0 0 0 0 0 "/>
</feComponentTransfer>
<feComposite operator="in" in2="shape" in="coloredNoise1" result="noise1Clipped" />
<feFlood flood-color="rgba(93, 49, 49, 0.25)" result="color1Flood" />
<feComposite operator="in" in2="noise1Clipped" in="color1Flood" result="color1" />
<feMerge result="effect1_noise_109_293">
<feMergeNode in="shape" />
<feMergeNode in="color1" />
</feMerge>
</filter>
<filter id="filter5_n_109_293" x="22.0732" y="0" width="43.9688" height="25.6542" filterUnits="userSpaceOnUse" color-interpolation-filters="sRGB">
<feFlood flood-opacity="0" result="BackgroundImageFix"/>
<feBlend mode="normal" in="SourceGraphic" in2="BackgroundImageFix" result="shape"/>
<feTurbulence type="fractalNoise" baseFrequency="2 2" stitchTiles="stitch" numOctaves="3" result="noise" seed="9760" />
<feColorMatrix in="noise" type="luminanceToAlpha" result="alphaNoise" />
<feComponentTransfer in="alphaNoise" result="coloredNoise1">
<feFuncA type="discrete" tableValues="1 1 1 1 1 1 1 1 1 1 1 1 1 1 1 1 1 1 1 1 1 1 1 1 1 1 1 1 1 1 1 1 1 1 1 1 1 1 1 1 1 1 1 1 1 1 1 1 1 1 1 0 0 0 0 0 0 0 0 0 0 0 0 0 0 0 0 0 0 0 0 0 0 0 0 0 0 0 0 0 0 0 0 0 0 0 0 0 0 0 0 0 0 0 0 0 0 0 0 0 "/>
</feComponentTransfer>
<feComposite operator="in" in2="shape" in="coloredNoise1" result="noise1Clipped" />
<feFlood flood-color="rgba(0, 0, 0, 0.25)" result="color1Flood" />
<feComposite operator="in" in2="noise1Clipped" in="color1Flood" result="color1" />
<feMerge result="effect1_noise_109_293">
<feMergeNode in="shape" />
<feMergeNode in="color1" />
</feMerge>
</filter>
<filter id="filter6_n_109_293" x="61.2891" y="28.7179" width="8.78418" height="10.2174" filterUnits="userSpaceOnUse" color-interpolation-filters="sRGB">
<feFlood flood-opacity="0" result="BackgroundImageFix"/>
<feBlend mode="normal" in="SourceGraphic" in2="BackgroundImageFix" result="shape"/>
<feTurbulence type="fractalNoise" baseFrequency="2 2" stitchTiles="stitch" numOctaves="3" result="noise" seed="1891" />
<feColorMatrix in="noise" type="luminanceToAlpha" result="alphaNoise" />
<feComponentTransfer in="alphaNoise" result="coloredNoise1">
<feFuncA type="discrete" tableValues="1 1 1 1 1 1 1 1 1 1 1 1 1 1 1 1 1 1 1 1 1 1 1 1 1 1 1 1 1 1 1 1 1 1 1 1 1 1 1 1 1 1 1 1 1 1 1 1 1 1 1 0 0 0 0 0 0 0 0 0 0 0 0 0 0 0 0 0 0 0 0 0 0 0 0 0 0 0 0 0 0 0 0 0 0 0 0 0 0 0 0 0 0 0 0 0 0 0 0 0 "/>
</feComponentTransfer>
<feComposite operator="in" in2="shape" in="coloredNoise1" result="noise1Clipped" />
<feFlood flood-color="rgba(255, 255, 255, 0.25)" result="color1Flood" />
<feComposite operator="in" in2="noise1Clipped" in="color1Flood" result="color1" />
<feMerge result="effect1_noise_109_293">
<feMergeNode in="shape" />
<feMergeNode in="color1" />
</feMerge>
</filter>
<filter id="filter7_n_109_293" x="68.3867" y="39.3578" width="4.37793" height="4.45886" filterUnits="userSpaceOnUse" color-interpolation-filters="sRGB">
<feFlood flood-opacity="0" result="BackgroundImageFix"/>
<feBlend mode="normal" in="SourceGraphic" in2="BackgroundImageFix" result="shape"/>
<feTurbulence type="fractalNoise" baseFrequency="2 2" stitchTiles="stitch" numOctaves="3" result="noise" seed="1891" />
<feColorMatrix in="noise" type="luminanceToAlpha" result="alphaNoise" />
<feComponentTransfer in="alphaNoise" result="coloredNoise1">
<feFuncA type="discrete" tableValues="1 1 1 1 1 1 1 1 1 1 1 1 1 1 1 1 1 1 1 1 1 1 1 1 1 1 1 1 1 1 1 1 1 1 1 1 1 1 1 1 1 1 1 1 1 1 1 1 1 1 1 0 0 0 0 0 0 0 0 0 0 0 0 0 0 0 0 0 0 0 0 0 0 0 0 0 0 0 0 0 0 0 0 0 0 0 0 0 0 0 0 0 0 0 0 0 0 0 0 0 "/>
</feComponentTransfer>
<feComposite operator="in" in2="shape" in="coloredNoise1" result="noise1Clipped" />
<feFlood flood-color="rgba(255, 255, 255, 0.25)" result="color1Flood" />
<feComposite operator="in" in2="noise1Clipped" in="color1Flood" result="color1" />
<feMerge result="effect1_noise_109_293">
<feMergeNode in="shape" />
<feMergeNode in="color1" />
</feMerge>
</filter>
<filter id="filter8_d_109_293" x="13.0732" y="47.6216" width="15" height="12" filterUnits="userSpaceOnUse" color-interpolation-filters="sRGB">
<feFlood flood-opacity="0" result="BackgroundImageFix"/>
<feColorMatrix in="SourceAlpha" type="matrix" values="0 0 0 0 0 0 0 0 0 0 0 0 0 0 0 0 0 0 127 0" result="hardAlpha"/>
<feOffset dy="1"/>
<feGaussianBlur stdDeviation="2"/>
<feComposite in2="hardAlpha" operator="out"/>
<feColorMatrix type="matrix" values="0 0 0 0 1 0 0 0 0 0.943591 0 0 0 0 0.943591 0 0 0 0.25 0"/>
<feBlend mode="normal" in2="BackgroundImageFix" result="effect1_dropShadow_109_293"/>
<feBlend mode="normal" in="SourceGraphic" in2="effect1_dropShadow_109_293" result="shape"/>
</filter>
<filter id="filter9_d_109_293" x="61.0732" y="47.6216" width="15" height="12" filterUnits="userSpaceOnUse" color-interpolation-filters="sRGB">
<feFlood flood-opacity="0" result="BackgroundImageFix"/>
<feColorMatrix in="SourceAlpha" type="matrix" values="0 0 0 0 0 0 0 0 0 0 0 0 0 0 0 0 0 0 127 0" result="hardAlpha"/>
<feOffset dy="1"/>
<feGaussianBlur stdDeviation="2"/>
<feComposite in2="hardAlpha" operator="out"/>
<feColorMatrix type="matrix" values="0 0 0 0 1 0 0 0 0 0.943591 0 0 0 0 0.943591 0 0 0 0.25 0"/>
<feBlend mode="normal" in2="BackgroundImageFix" result="effect1_dropShadow_109_293"/>
<feBlend mode="normal" in="SourceGraphic" in2="effect1_dropShadow_109_293" result="shape"/>
</filter>
</defs>
</svg>
