<svg width="87" height="90" viewBox="0 0 87 90" fill="none" xmlns="http://www.w3.org/2000/svg">
<ellipse opacity="0.4" cx="43.5" cy="76.0011" rx="43.5" ry="14" fill="#2C925F"/>
<g filter="url(#filter0_n_218_64)">
<path d="M74.948 52.6653C77.2293 54.6699 80.3803 54.8137 81.9859 52.9865C84.5527 50.3987 83.1701 47.9092 80.8888 45.9046C78.6075 43.9 75.2141 42.5326 72.9811 45.0739C71.2536 47.0397 72.6668 50.6607 74.948 52.6653Z" fill="#B01F10"/>
</g>
<g filter="url(#filter1_n_218_64)">
<path d="M54.6405 76.8055C52.0105 78.3239 48.8925 77.8472 47.6763 75.7407C45.6667 72.6998 47.5105 70.5297 50.1405 69.0113C52.7705 67.4928 56.3661 66.8173 58.0576 69.747C59.3661 72.0134 57.2705 75.287 54.6405 76.8055Z" fill="#AB2011"/>
</g>
<g filter="url(#filter2_n_218_64)">
<path d="M39.2672 78.3733C42.2006 79.1593 45.089 77.8918 45.7185 75.5423C46.8726 72.0849 44.53 70.466 41.5966 69.68C38.6632 68.894 35.0152 69.1721 34.1396 72.4398C33.4623 74.9676 36.3338 77.5873 39.2672 78.3733Z" fill="#AB2011"/>
</g>
<g filter="url(#filter3_n_218_64)">
<path d="M78.5742 48.1216C78.5742 61.9287 63.128 73.1216 44.0742 73.1216C15.5742 74.1216 8.07422 61.9287 8.07422 48.1216C8.07422 34.3145 17.5742 18.6216 44.0742 18.6216C64.5742 18.6216 78.5742 34.3145 78.5742 48.1216Z" fill="#FF402C"/>
</g>
<g filter="url(#filter4_n_218_64)">
<path d="M11.4719 50.9219C10.2199 53.6887 7.40848 55.1187 5.1924 54.116C1.78699 52.8164 2.0203 49.9784 3.27229 47.2116C4.52428 44.4448 7.05218 41.8 10.1343 43.1947C12.5186 44.2736 12.7239 48.1551 11.4719 50.9219Z" fill="#B01F10"/>
</g>
<g filter="url(#filter5_n_218_64)">
<path d="M54.0092 25.5297C54.4894 25.7384 55.0442 25.6819 55.4721 25.3803L65.4018 18.3774C66.7139 17.4511 65.8484 15.389 64.268 15.6762L54.6508 17.4272L56.7163 13.8002C57.3981 12.6011 55.3556 11.2452 54.0434 12.0258L48.1606 15.5307C48.1365 15.545 48.1092 15.5574 48.0815 15.5678L45.188 16.6459C45.4777 11.839 46.1324 7.97736 47.5796 2.55997C47.8896 1.39782 47.13 0.214081 45.9409 0.0326272L45.8745 0.0228616C44.8988 -0.125734 43.9581 0.461232 43.6753 1.40665C41.9683 7.12126 41.2672 11.1359 41.0737 16.4984L40.3764 15.7787C40.3483 15.7497 40.3237 15.7183 40.3051 15.6859L37.3305 10.5043C36.6235 9.27349 34.2557 9.34969 34.0717 10.6088L33.1841 16.7143C33.1498 16.9503 33.2101 17.1891 33.3462 17.4057L23.8491 15.6762C22.2683 15.3885 21.4024 17.4512 22.7153 18.3774L32.645 25.3803C33.0729 25.6819 33.6277 25.7385 34.1079 25.5297L43.6567 21.3764C43.8059 21.3114 43.9408 21.2234 44.0581 21.1186C44.1756 21.2237 44.3108 21.3113 44.4604 21.3764L54.0092 25.5297Z" fill="#63A34E"/>
</g>
<g filter="url(#filter6_n_218_64)">
<path d="M69.9054 36.1718C70.2809 36.992 70.0093 37.9639 69.2952 38.515C68.2823 39.2967 66.8 38.9446 66.19 37.8199C64.9529 35.5391 63.7368 33.9683 61.9792 32.3266C61.0378 31.4474 61.0524 29.9214 62.0721 29.1345C62.7847 28.5846 63.7844 28.5719 64.4824 29.1403C67.0565 31.2364 68.4853 33.07 69.9054 36.1718Z" fill="#E26C5E"/>
</g>
<g filter="url(#filter7_n_218_64)">
<path d="M72.7571 41.6075C72.8141 42.1421 72.5441 42.6503 72.1184 42.9788L71.3323 43.5854C70.5772 44.1682 69.5182 43.5547 68.937 42.7984C68.3486 42.0325 68.1013 40.8833 68.866 40.2932L69.6227 39.7092C70.0377 39.3889 70.583 39.2589 71.0747 39.4408C72.1622 39.843 72.6319 40.4332 72.7571 41.6075Z" fill="#E26C5E"/>
</g>
<ellipse cx="36.0742" cy="43.1216" rx="6" ry="9.5" fill="#3C1212"/>
<ellipse cx="55.0742" cy="43.1216" rx="6" ry="9.5" fill="#3C1212"/>
<ellipse cx="57.0742" cy="41.6216" rx="2" ry="4" fill="white"/>
<ellipse cx="38.0742" cy="41.6216" rx="2" ry="4" fill="white"/>
<g filter="url(#filter8_d_218_64)">
<ellipse cx="20.5742" cy="52.6216" rx="3.5" ry="2" fill="#FF7575"/>
</g>
<g filter="url(#filter9_d_218_64)">
<ellipse cx="68.5742" cy="52.6216" rx="3.5" ry="2" fill="#FF7575"/>
</g>
<defs>
<filter id="filter0_n_218_64" x="72.2119" y="43.6901" width="11.1562" height="10.5781" filterUnits="userSpaceOnUse" color-interpolation-filters="sRGB">
<feFlood flood-opacity="0" result="BackgroundImageFix"/>
<feBlend mode="normal" in="SourceGraphic" in2="BackgroundImageFix" result="shape"/>
<feTurbulence type="fractalNoise" baseFrequency="2 2" stitchTiles="stitch" numOctaves="3" result="noise" seed="6898" />
<feColorMatrix in="noise" type="luminanceToAlpha" result="alphaNoise" />
<feComponentTransfer in="alphaNoise" result="coloredNoise1">
<feFuncA type="discrete" tableValues="1 1 1 1 1 1 1 1 1 1 1 1 1 1 1 1 1 1 1 1 1 1 1 1 1 1 1 1 1 1 1 1 1 1 1 1 1 1 1 1 1 1 1 1 1 1 1 1 1 1 1 0 0 0 0 0 0 0 0 0 0 0 0 0 0 0 0 0 0 0 0 0 0 0 0 0 0 0 0 0 0 0 0 0 0 0 0 0 0 0 0 0 0 0 0 0 0 0 0 0 "/>
</feComponentTransfer>
<feComposite operator="in" in2="shape" in="coloredNoise1" result="noise1Clipped" />
<feFlood flood-color="rgba(93, 49, 49, 0.25)" result="color1Flood" />
<feComposite operator="in" in2="noise1Clipped" in="color1Flood" result="color1" />
<feMerge result="effect1_noise_218_64">
<feMergeNode in="shape" />
<feMergeNode in="color1" />
</feMerge>
</filter>
<filter id="filter1_n_218_64" x="46.8252" y="67.7109" width="11.6328" height="9.98254" filterUnits="userSpaceOnUse" color-interpolation-filters="sRGB">
<feFlood flood-opacity="0" result="BackgroundImageFix"/>
<feBlend mode="normal" in="SourceGraphic" in2="BackgroundImageFix" result="shape"/>
<feTurbulence type="fractalNoise" baseFrequency="2 2" stitchTiles="stitch" numOctaves="3" result="noise" seed="6898" />
<feColorMatrix in="noise" type="luminanceToAlpha" result="alphaNoise" />
<feComponentTransfer in="alphaNoise" result="coloredNoise1">
<feFuncA type="discrete" tableValues="1 1 1 1 1 1 1 1 1 1 1 1 1 1 1 1 1 1 1 1 1 1 1 1 1 1 1 1 1 1 1 1 1 1 1 1 1 1 1 1 1 1 1 1 1 1 1 1 1 1 1 0 0 0 0 0 0 0 0 0 0 0 0 0 0 0 0 0 0 0 0 0 0 0 0 0 0 0 0 0 0 0 0 0 0 0 0 0 0 0 0 0 0 0 0 0 0 0 0 0 "/>
</feComponentTransfer>
<feComposite operator="in" in2="shape" in="coloredNoise1" result="noise1Clipped" />
<feFlood flood-color="rgba(93, 49, 49, 0.25)" result="color1Flood" />
<feComposite operator="in" in2="noise1Clipped" in="color1Flood" result="color1" />
<feMerge result="effect1_noise_218_64">
<feMergeNode in="shape" />
<feMergeNode in="color1" />
</feMerge>
</filter>
<filter id="filter2_n_218_64" x="34.0391" y="69.3115" width="11.9795" height="9.2948" filterUnits="userSpaceOnUse" color-interpolation-filters="sRGB">
<feFlood flood-opacity="0" result="BackgroundImageFix"/>
<feBlend mode="normal" in="SourceGraphic" in2="BackgroundImageFix" result="shape"/>
<feTurbulence type="fractalNoise" baseFrequency="2 2" stitchTiles="stitch" numOctaves="3" result="noise" seed="6898" />
<feColorMatrix in="noise" type="luminanceToAlpha" result="alphaNoise" />
<feComponentTransfer in="alphaNoise" result="coloredNoise1">
<feFuncA type="discrete" tableValues="1 1 1 1 1 1 1 1 1 1 1 1 1 1 1 1 1 1 1 1 1 1 1 1 1 1 1 1 1 1 1 1 1 1 1 1 1 1 1 1 1 1 1 1 1 1 1 1 1 1 1 0 0 0 0 0 0 0 0 0 0 0 0 0 0 0 0 0 0 0 0 0 0 0 0 0 0 0 0 0 0 0 0 0 0 0 0 0 0 0 0 0 0 0 0 0 0 0 0 0 "/>
</feComponentTransfer>
<feComposite operator="in" in2="shape" in="coloredNoise1" result="noise1Clipped" />
<feFlood flood-color="rgba(93, 49, 49, 0.25)" result="color1Flood" />
<feComposite operator="in" in2="noise1Clipped" in="color1Flood" result="color1" />
<feMerge result="effect1_noise_218_64">
<feMergeNode in="shape" />
<feMergeNode in="color1" />
</feMerge>
</filter>
<filter id="filter3_n_218_64" x="8.07422" y="18.6216" width="70.5" height="54.5575" filterUnits="userSpaceOnUse" color-interpolation-filters="sRGB">
<feFlood flood-opacity="0" result="BackgroundImageFix"/>
<feBlend mode="normal" in="SourceGraphic" in2="BackgroundImageFix" result="shape"/>
<feTurbulence type="fractalNoise" baseFrequency="2 2" stitchTiles="stitch" numOctaves="3" result="noise" seed="6898" />
<feColorMatrix in="noise" type="luminanceToAlpha" result="alphaNoise" />
<feComponentTransfer in="alphaNoise" result="coloredNoise1">
<feFuncA type="discrete" tableValues="1 1 1 1 1 1 1 1 1 1 1 1 1 1 1 1 1 1 1 1 1 1 1 1 1 1 1 1 1 1 1 1 1 1 1 1 1 1 1 1 1 1 1 1 1 1 1 1 1 1 1 0 0 0 0 0 0 0 0 0 0 0 0 0 0 0 0 0 0 0 0 0 0 0 0 0 0 0 0 0 0 0 0 0 0 0 0 0 0 0 0 0 0 0 0 0 0 0 0 0 "/>
</feComponentTransfer>
<feComposite operator="in" in2="shape" in="coloredNoise1" result="noise1Clipped" />
<feFlood flood-color="rgba(93, 49, 49, 0.25)" result="color1Flood" />
<feComposite operator="in" in2="noise1Clipped" in="color1Flood" result="color1" />
<feMerge result="effect1_noise_218_64">
<feMergeNode in="shape" />
<feMergeNode in="color1" />
</feMerge>
</filter>
<filter id="filter4_n_218_64" x="2.42676" y="42.8103" width="9.80176" height="11.626" filterUnits="userSpaceOnUse" color-interpolation-filters="sRGB">
<feFlood flood-opacity="0" result="BackgroundImageFix"/>
<feBlend mode="normal" in="SourceGraphic" in2="BackgroundImageFix" result="shape"/>
<feTurbulence type="fractalNoise" baseFrequency="2 2" stitchTiles="stitch" numOctaves="3" result="noise" seed="6898" />
<feColorMatrix in="noise" type="luminanceToAlpha" result="alphaNoise" />
<feComponentTransfer in="alphaNoise" result="coloredNoise1">
<feFuncA type="discrete" tableValues="1 1 1 1 1 1 1 1 1 1 1 1 1 1 1 1 1 1 1 1 1 1 1 1 1 1 1 1 1 1 1 1 1 1 1 1 1 1 1 1 1 1 1 1 1 1 1 1 1 1 1 0 0 0 0 0 0 0 0 0 0 0 0 0 0 0 0 0 0 0 0 0 0 0 0 0 0 0 0 0 0 0 0 0 0 0 0 0 0 0 0 0 0 0 0 0 0 0 0 0 "/>
</feComponentTransfer>
<feComposite operator="in" in2="shape" in="coloredNoise1" result="noise1Clipped" />
<feFlood flood-color="rgba(93, 49, 49, 0.25)" result="color1Flood" />
<feComposite operator="in" in2="noise1Clipped" in="color1Flood" result="color1" />
<feMerge result="effect1_noise_218_64">
<feMergeNode in="shape" />
<feMergeNode in="color1" />
</feMerge>
</filter>
<filter id="filter5_n_218_64" x="22.0742" y="0" width="43.9678" height="25.6542" filterUnits="userSpaceOnUse" color-interpolation-filters="sRGB">
<feFlood flood-opacity="0" result="BackgroundImageFix"/>
<feBlend mode="normal" in="SourceGraphic" in2="BackgroundImageFix" result="shape"/>
<feTurbulence type="fractalNoise" baseFrequency="2 2" stitchTiles="stitch" numOctaves="3" result="noise" seed="9760" />
<feColorMatrix in="noise" type="luminanceToAlpha" result="alphaNoise" />
<feComponentTransfer in="alphaNoise" result="coloredNoise1">
<feFuncA type="discrete" tableValues="1 1 1 1 1 1 1 1 1 1 1 1 1 1 1 1 1 1 1 1 1 1 1 1 1 1 1 1 1 1 1 1 1 1 1 1 1 1 1 1 1 1 1 1 1 1 1 1 1 1 1 0 0 0 0 0 0 0 0 0 0 0 0 0 0 0 0 0 0 0 0 0 0 0 0 0 0 0 0 0 0 0 0 0 0 0 0 0 0 0 0 0 0 0 0 0 0 0 0 0 "/>
</feComponentTransfer>
<feComposite operator="in" in2="shape" in="coloredNoise1" result="noise1Clipped" />
<feFlood flood-color="rgba(0, 0, 0, 0.25)" result="color1Flood" />
<feComposite operator="in" in2="noise1Clipped" in="color1Flood" result="color1" />
<feMerge result="effect1_noise_218_64">
<feMergeNode in="shape" />
<feMergeNode in="color1" />
</feMerge>
</filter>
<filter id="filter6_n_218_64" x="61.29" y="28.718" width="8.78418" height="10.2174" filterUnits="userSpaceOnUse" color-interpolation-filters="sRGB">
<feFlood flood-opacity="0" result="BackgroundImageFix"/>
<feBlend mode="normal" in="SourceGraphic" in2="BackgroundImageFix" result="shape"/>
<feTurbulence type="fractalNoise" baseFrequency="2 2" stitchTiles="stitch" numOctaves="3" result="noise" seed="1891" />
<feColorMatrix in="noise" type="luminanceToAlpha" result="alphaNoise" />
<feComponentTransfer in="alphaNoise" result="coloredNoise1">
<feFuncA type="discrete" tableValues="1 1 1 1 1 1 1 1 1 1 1 1 1 1 1 1 1 1 1 1 1 1 1 1 1 1 1 1 1 1 1 1 1 1 1 1 1 1 1 1 1 1 1 1 1 1 1 1 1 1 1 0 0 0 0 0 0 0 0 0 0 0 0 0 0 0 0 0 0 0 0 0 0 0 0 0 0 0 0 0 0 0 0 0 0 0 0 0 0 0 0 0 0 0 0 0 0 0 0 0 "/>
</feComponentTransfer>
<feComposite operator="in" in2="shape" in="coloredNoise1" result="noise1Clipped" />
<feFlood flood-color="rgba(255, 255, 255, 0.25)" result="color1Flood" />
<feComposite operator="in" in2="noise1Clipped" in="color1Flood" result="color1" />
<feMerge result="effect1_noise_218_64">
<feMergeNode in="shape" />
<feMergeNode in="color1" />
</feMerge>
</filter>
<filter id="filter7_n_218_64" x="68.3867" y="39.3579" width="4.37793" height="4.45886" filterUnits="userSpaceOnUse" color-interpolation-filters="sRGB">
<feFlood flood-opacity="0" result="BackgroundImageFix"/>
<feBlend mode="normal" in="SourceGraphic" in2="BackgroundImageFix" result="shape"/>
<feTurbulence type="fractalNoise" baseFrequency="2 2" stitchTiles="stitch" numOctaves="3" result="noise" seed="1891" />
<feColorMatrix in="noise" type="luminanceToAlpha" result="alphaNoise" />
<feComponentTransfer in="alphaNoise" result="coloredNoise1">
<feFuncA type="discrete" tableValues="1 1 1 1 1 1 1 1 1 1 1 1 1 1 1 1 1 1 1 1 1 1 1 1 1 1 1 1 1 1 1 1 1 1 1 1 1 1 1 1 1 1 1 1 1 1 1 1 1 1 1 0 0 0 0 0 0 0 0 0 0 0 0 0 0 0 0 0 0 0 0 0 0 0 0 0 0 0 0 0 0 0 0 0 0 0 0 0 0 0 0 0 0 0 0 0 0 0 0 0 "/>
</feComponentTransfer>
<feComposite operator="in" in2="shape" in="coloredNoise1" result="noise1Clipped" />
<feFlood flood-color="rgba(255, 255, 255, 0.25)" result="color1Flood" />
<feComposite operator="in" in2="noise1Clipped" in="color1Flood" result="color1" />
<feMerge result="effect1_noise_218_64">
<feMergeNode in="shape" />
<feMergeNode in="color1" />
</feMerge>
</filter>
<filter id="filter8_d_218_64" x="13.0742" y="47.6216" width="15" height="12" filterUnits="userSpaceOnUse" color-interpolation-filters="sRGB">
<feFlood flood-opacity="0" result="BackgroundImageFix"/>
<feColorMatrix in="SourceAlpha" type="matrix" values="0 0 0 0 0 0 0 0 0 0 0 0 0 0 0 0 0 0 127 0" result="hardAlpha"/>
<feOffset dy="1"/>
<feGaussianBlur stdDeviation="2"/>
<feComposite in2="hardAlpha" operator="out"/>
<feColorMatrix type="matrix" values="0 0 0 0 1 0 0 0 0 0.943591 0 0 0 0 0.943591 0 0 0 0.25 0"/>
<feBlend mode="normal" in2="BackgroundImageFix" result="effect1_dropShadow_218_64"/>
<feBlend mode="normal" in="SourceGraphic" in2="effect1_dropShadow_218_64" result="shape"/>
</filter>
<filter id="filter9_d_218_64" x="61.0742" y="47.6216" width="15" height="12" filterUnits="userSpaceOnUse" color-interpolation-filters="sRGB">
<feFlood flood-opacity="0" result="BackgroundImageFix"/>
<feColorMatrix in="SourceAlpha" type="matrix" values="0 0 0 0 0 0 0 0 0 0 0 0 0 0 0 0 0 0 127 0" result="hardAlpha"/>
<feOffset dy="1"/>
<feGaussianBlur stdDeviation="2"/>
<feComposite in2="hardAlpha" operator="out"/>
<feColorMatrix type="matrix" values="0 0 0 0 1 0 0 0 0 0.943591 0 0 0 0 0.943591 0 0 0 0.25 0"/>
<feBlend mode="normal" in2="BackgroundImageFix" result="effect1_dropShadow_218_64"/>
<feBlend mode="normal" in="SourceGraphic" in2="effect1_dropShadow_218_64" result="shape"/>
</filter>
</defs>
</svg>
