<svg width="87" height="90" viewBox="0 0 87 90" fill="none" xmlns="http://www.w3.org/2000/svg">
<ellipse opacity="0.4" cx="43.5" cy="76.0006" rx="43.5" ry="14" fill="#2C925F"/>
<g filter="url(#filter0_n_218_41)">
<path d="M74.948 52.6648C77.2293 54.6694 80.3803 54.8132 81.9859 52.986C84.5527 50.3982 83.1701 47.9087 80.8888 45.9041C78.6075 43.8995 75.2141 42.5321 72.9811 45.0734C71.2536 47.0393 72.6668 50.6602 74.948 52.6648Z" fill="#B01F10"/>
</g>
<g filter="url(#filter1_n_218_41)">
<path d="M37.3872 76.9596C34.4186 76.3195 32.4276 73.873 32.9402 71.4953C33.4921 67.8923 36.3155 67.5216 39.2841 68.1617C42.2528 68.8018 45.3713 70.7148 44.6583 74.0218C44.1067 76.58 40.3559 77.5996 37.3872 76.9596Z" fill="#AB2011"/>
</g>
<g filter="url(#filter2_n_218_41)">
<path d="M49.6436 77.6614C52.6527 77.2517 54.826 74.9657 54.4978 72.5555C54.2249 68.9208 51.4384 68.334 48.4292 68.7438C45.4201 69.1535 42.1636 70.8209 42.6201 74.173C42.9732 76.7661 46.6345 78.0712 49.6436 77.6614Z" fill="#AB2011"/>
</g>
<g filter="url(#filter3_n_218_41)">
<path d="M78.5732 48.1211C78.5732 61.9282 63.1271 73.1211 44.0732 73.1211C15.5732 74.1211 8.07324 61.9282 8.07324 48.1211C8.07324 34.314 17.5732 18.6211 44.0732 18.6211C64.5732 18.6211 78.5732 34.314 78.5732 48.1211Z" fill="#FF402C"/>
</g>
<g filter="url(#filter4_n_218_41)">
<path d="M11.4719 50.9214C10.2199 53.6882 7.40848 55.1183 5.1924 54.1155C1.78699 52.8159 2.0203 49.9779 3.27229 47.2111C4.52428 44.4443 7.05218 41.7995 10.1343 43.1942C12.5186 44.2731 12.7239 48.1546 11.4719 50.9214Z" fill="#B01F10"/>
</g>
<g filter="url(#filter5_n_218_41)">
<path d="M54.0093 25.5288C54.4894 25.7374 55.0444 25.6811 55.4722 25.3794L65.4019 18.3765C66.7131 17.4502 65.8479 15.3887 64.2681 15.6753L54.6509 17.4263L56.7163 13.8003C57.3983 12.6012 55.3557 11.2452 54.0435 12.0259L48.1597 15.5308C48.1358 15.545 48.109 15.5576 48.0816 15.5679L45.188 16.6451C45.4778 11.8385 46.1316 7.97703 47.5786 2.56009C47.8888 1.39794 47.13 0.214245 45.9409 0.0327468L45.8745 0.0229811C44.8987 -0.125746 43.9571 0.461081 43.6743 1.40677C41.9673 7.12144 41.2663 11.1358 41.0728 16.4986L40.3755 15.7788C40.3474 15.7499 40.3238 15.7184 40.3052 15.6861L37.3306 10.5044C36.6237 9.27347 34.2549 9.3489 34.0708 10.6079L33.1831 16.7134C33.1489 16.9494 33.2091 17.1883 33.3452 17.4048L23.8492 15.6753C22.2682 15.3875 21.4024 17.4503 22.7154 18.3765L32.6451 25.3794C33.073 25.6811 33.6278 25.7376 34.1079 25.5288L43.6568 21.3755C43.8059 21.3105 43.9409 21.2225 44.0581 21.1177C44.1756 21.2228 44.3109 21.3105 44.4605 21.3755L54.0093 25.5288Z" fill="#63A34E"/>
</g>
<g filter="url(#filter6_n_218_41)">
<path d="M69.9044 36.1713C70.2799 36.9915 70.0083 37.9634 69.2942 38.5145C68.2813 39.2962 66.7991 38.9441 66.189 37.8194C64.9519 35.5386 63.7359 33.9678 61.9782 32.3261C61.0369 31.4469 61.0515 29.921 62.0712 29.134C62.7837 28.5841 63.7835 28.5715 64.4814 29.1398C67.0555 31.236 68.4843 33.0695 69.9044 36.1713Z" fill="#E26C5E"/>
</g>
<g filter="url(#filter7_n_218_41)">
<path d="M72.7571 41.607C72.8141 42.1417 72.5441 42.6498 72.1184 42.9783L71.3323 43.5849C70.5772 44.1677 69.5182 43.5542 68.937 42.7979C68.3486 42.032 68.1013 40.8828 68.866 40.2927L69.6227 39.7087C70.0377 39.3884 70.583 39.2584 71.0747 39.4403C72.1622 39.8425 72.6319 40.4327 72.7571 41.607Z" fill="#E26C5E"/>
</g>
<ellipse cx="36.0732" cy="43.1211" rx="6" ry="9.5" fill="#3C1212"/>
<ellipse cx="55.0732" cy="43.1211" rx="6" ry="9.5" fill="#3C1212"/>
<ellipse cx="57.0732" cy="41.6211" rx="2" ry="4" fill="white"/>
<ellipse cx="38.0732" cy="41.6211" rx="2" ry="4" fill="white"/>
<g filter="url(#filter8_d_218_41)">
<ellipse cx="20.5732" cy="52.6211" rx="3.5" ry="2" fill="#FF7575"/>
</g>
<g filter="url(#filter9_d_218_41)">
<ellipse cx="68.5732" cy="52.6211" rx="3.5" ry="2" fill="#FF7575"/>
</g>
<defs>
<filter id="filter0_n_218_41" x="72.2119" y="43.6896" width="11.1562" height="10.5781" filterUnits="userSpaceOnUse" color-interpolation-filters="sRGB">
<feFlood flood-opacity="0" result="BackgroundImageFix"/>
<feBlend mode="normal" in="SourceGraphic" in2="BackgroundImageFix" result="shape"/>
<feTurbulence type="fractalNoise" baseFrequency="2 2" stitchTiles="stitch" numOctaves="3" result="noise" seed="6898" />
<feColorMatrix in="noise" type="luminanceToAlpha" result="alphaNoise" />
<feComponentTransfer in="alphaNoise" result="coloredNoise1">
<feFuncA type="discrete" tableValues="1 1 1 1 1 1 1 1 1 1 1 1 1 1 1 1 1 1 1 1 1 1 1 1 1 1 1 1 1 1 1 1 1 1 1 1 1 1 1 1 1 1 1 1 1 1 1 1 1 1 1 0 0 0 0 0 0 0 0 0 0 0 0 0 0 0 0 0 0 0 0 0 0 0 0 0 0 0 0 0 0 0 0 0 0 0 0 0 0 0 0 0 0 0 0 0 0 0 0 0 "/>
</feComponentTransfer>
<feComposite operator="in" in2="shape" in="coloredNoise1" result="noise1Clipped" />
<feFlood flood-color="rgba(93, 49, 49, 0.25)" result="color1Flood" />
<feComposite operator="in" in2="noise1Clipped" in="color1Flood" result="color1" />
<feMerge result="effect1_noise_218_41">
<feMergeNode in="shape" />
<feMergeNode in="color1" />
</feMerge>
</filter>
<filter id="filter1_n_218_41" x="32.8594" y="67.9059" width="11.9023" height="9.23975" filterUnits="userSpaceOnUse" color-interpolation-filters="sRGB">
<feFlood flood-opacity="0" result="BackgroundImageFix"/>
<feBlend mode="normal" in="SourceGraphic" in2="BackgroundImageFix" result="shape"/>
<feTurbulence type="fractalNoise" baseFrequency="2 2" stitchTiles="stitch" numOctaves="3" result="noise" seed="6898" />
<feColorMatrix in="noise" type="luminanceToAlpha" result="alphaNoise" />
<feComponentTransfer in="alphaNoise" result="coloredNoise1">
<feFuncA type="discrete" tableValues="1 1 1 1 1 1 1 1 1 1 1 1 1 1 1 1 1 1 1 1 1 1 1 1 1 1 1 1 1 1 1 1 1 1 1 1 1 1 1 1 1 1 1 1 1 1 1 1 1 1 1 0 0 0 0 0 0 0 0 0 0 0 0 0 0 0 0 0 0 0 0 0 0 0 0 0 0 0 0 0 0 0 0 0 0 0 0 0 0 0 0 0 0 0 0 0 0 0 0 0 "/>
</feComponentTransfer>
<feComposite operator="in" in2="shape" in="coloredNoise1" result="noise1Clipped" />
<feFlood flood-color="rgba(93, 49, 49, 0.25)" result="color1Flood" />
<feComposite operator="in" in2="noise1Clipped" in="color1Flood" result="color1" />
<feMerge result="effect1_noise_218_41">
<feMergeNode in="shape" />
<feMergeNode in="color1" />
</feMerge>
</filter>
<filter id="filter2_n_218_41" x="42.5771" y="68.6312" width="11.9531" height="9.10437" filterUnits="userSpaceOnUse" color-interpolation-filters="sRGB">
<feFlood flood-opacity="0" result="BackgroundImageFix"/>
<feBlend mode="normal" in="SourceGraphic" in2="BackgroundImageFix" result="shape"/>
<feTurbulence type="fractalNoise" baseFrequency="2 2" stitchTiles="stitch" numOctaves="3" result="noise" seed="6898" />
<feColorMatrix in="noise" type="luminanceToAlpha" result="alphaNoise" />
<feComponentTransfer in="alphaNoise" result="coloredNoise1">
<feFuncA type="discrete" tableValues="1 1 1 1 1 1 1 1 1 1 1 1 1 1 1 1 1 1 1 1 1 1 1 1 1 1 1 1 1 1 1 1 1 1 1 1 1 1 1 1 1 1 1 1 1 1 1 1 1 1 1 0 0 0 0 0 0 0 0 0 0 0 0 0 0 0 0 0 0 0 0 0 0 0 0 0 0 0 0 0 0 0 0 0 0 0 0 0 0 0 0 0 0 0 0 0 0 0 0 0 "/>
</feComponentTransfer>
<feComposite operator="in" in2="shape" in="coloredNoise1" result="noise1Clipped" />
<feFlood flood-color="rgba(93, 49, 49, 0.25)" result="color1Flood" />
<feComposite operator="in" in2="noise1Clipped" in="color1Flood" result="color1" />
<feMerge result="effect1_noise_218_41">
<feMergeNode in="shape" />
<feMergeNode in="color1" />
</feMerge>
</filter>
<filter id="filter3_n_218_41" x="8.07324" y="18.6211" width="70.5" height="54.5575" filterUnits="userSpaceOnUse" color-interpolation-filters="sRGB">
<feFlood flood-opacity="0" result="BackgroundImageFix"/>
<feBlend mode="normal" in="SourceGraphic" in2="BackgroundImageFix" result="shape"/>
<feTurbulence type="fractalNoise" baseFrequency="2 2" stitchTiles="stitch" numOctaves="3" result="noise" seed="6898" />
<feColorMatrix in="noise" type="luminanceToAlpha" result="alphaNoise" />
<feComponentTransfer in="alphaNoise" result="coloredNoise1">
<feFuncA type="discrete" tableValues="1 1 1 1 1 1 1 1 1 1 1 1 1 1 1 1 1 1 1 1 1 1 1 1 1 1 1 1 1 1 1 1 1 1 1 1 1 1 1 1 1 1 1 1 1 1 1 1 1 1 1 0 0 0 0 0 0 0 0 0 0 0 0 0 0 0 0 0 0 0 0 0 0 0 0 0 0 0 0 0 0 0 0 0 0 0 0 0 0 0 0 0 0 0 0 0 0 0 0 0 "/>
</feComponentTransfer>
<feComposite operator="in" in2="shape" in="coloredNoise1" result="noise1Clipped" />
<feFlood flood-color="rgba(93, 49, 49, 0.25)" result="color1Flood" />
<feComposite operator="in" in2="noise1Clipped" in="color1Flood" result="color1" />
<feMerge result="effect1_noise_218_41">
<feMergeNode in="shape" />
<feMergeNode in="color1" />
</feMerge>
</filter>
<filter id="filter4_n_218_41" x="2.42676" y="42.8098" width="9.80176" height="11.626" filterUnits="userSpaceOnUse" color-interpolation-filters="sRGB">
<feFlood flood-opacity="0" result="BackgroundImageFix"/>
<feBlend mode="normal" in="SourceGraphic" in2="BackgroundImageFix" result="shape"/>
<feTurbulence type="fractalNoise" baseFrequency="2 2" stitchTiles="stitch" numOctaves="3" result="noise" seed="6898" />
<feColorMatrix in="noise" type="luminanceToAlpha" result="alphaNoise" />
<feComponentTransfer in="alphaNoise" result="coloredNoise1">
<feFuncA type="discrete" tableValues="1 1 1 1 1 1 1 1 1 1 1 1 1 1 1 1 1 1 1 1 1 1 1 1 1 1 1 1 1 1 1 1 1 1 1 1 1 1 1 1 1 1 1 1 1 1 1 1 1 1 1 0 0 0 0 0 0 0 0 0 0 0 0 0 0 0 0 0 0 0 0 0 0 0 0 0 0 0 0 0 0 0 0 0 0 0 0 0 0 0 0 0 0 0 0 0 0 0 0 0 "/>
</feComponentTransfer>
<feComposite operator="in" in2="shape" in="coloredNoise1" result="noise1Clipped" />
<feFlood flood-color="rgba(93, 49, 49, 0.25)" result="color1Flood" />
<feComposite operator="in" in2="noise1Clipped" in="color1Flood" result="color1" />
<feMerge result="effect1_noise_218_41">
<feMergeNode in="shape" />
<feMergeNode in="color1" />
</feMerge>
</filter>
<filter id="filter5_n_218_41" x="22.0742" y="0" width="43.9678" height="25.6533" filterUnits="userSpaceOnUse" color-interpolation-filters="sRGB">
<feFlood flood-opacity="0" result="BackgroundImageFix"/>
<feBlend mode="normal" in="SourceGraphic" in2="BackgroundImageFix" result="shape"/>
<feTurbulence type="fractalNoise" baseFrequency="2 2" stitchTiles="stitch" numOctaves="3" result="noise" seed="9760" />
<feColorMatrix in="noise" type="luminanceToAlpha" result="alphaNoise" />
<feComponentTransfer in="alphaNoise" result="coloredNoise1">
<feFuncA type="discrete" tableValues="1 1 1 1 1 1 1 1 1 1 1 1 1 1 1 1 1 1 1 1 1 1 1 1 1 1 1 1 1 1 1 1 1 1 1 1 1 1 1 1 1 1 1 1 1 1 1 1 1 1 1 0 0 0 0 0 0 0 0 0 0 0 0 0 0 0 0 0 0 0 0 0 0 0 0 0 0 0 0 0 0 0 0 0 0 0 0 0 0 0 0 0 0 0 0 0 0 0 0 0 "/>
</feComponentTransfer>
<feComposite operator="in" in2="shape" in="coloredNoise1" result="noise1Clipped" />
<feFlood flood-color="rgba(0, 0, 0, 0.25)" result="color1Flood" />
<feComposite operator="in" in2="noise1Clipped" in="color1Flood" result="color1" />
<feMerge result="effect1_noise_218_41">
<feMergeNode in="shape" />
<feMergeNode in="color1" />
</feMerge>
</filter>
<filter id="filter6_n_218_41" x="61.2891" y="28.7175" width="8.78418" height="10.2174" filterUnits="userSpaceOnUse" color-interpolation-filters="sRGB">
<feFlood flood-opacity="0" result="BackgroundImageFix"/>
<feBlend mode="normal" in="SourceGraphic" in2="BackgroundImageFix" result="shape"/>
<feTurbulence type="fractalNoise" baseFrequency="2 2" stitchTiles="stitch" numOctaves="3" result="noise" seed="1891" />
<feColorMatrix in="noise" type="luminanceToAlpha" result="alphaNoise" />
<feComponentTransfer in="alphaNoise" result="coloredNoise1">
<feFuncA type="discrete" tableValues="1 1 1 1 1 1 1 1 1 1 1 1 1 1 1 1 1 1 1 1 1 1 1 1 1 1 1 1 1 1 1 1 1 1 1 1 1 1 1 1 1 1 1 1 1 1 1 1 1 1 1 0 0 0 0 0 0 0 0 0 0 0 0 0 0 0 0 0 0 0 0 0 0 0 0 0 0 0 0 0 0 0 0 0 0 0 0 0 0 0 0 0 0 0 0 0 0 0 0 0 "/>
</feComponentTransfer>
<feComposite operator="in" in2="shape" in="coloredNoise1" result="noise1Clipped" />
<feFlood flood-color="rgba(255, 255, 255, 0.25)" result="color1Flood" />
<feComposite operator="in" in2="noise1Clipped" in="color1Flood" result="color1" />
<feMerge result="effect1_noise_218_41">
<feMergeNode in="shape" />
<feMergeNode in="color1" />
</feMerge>
</filter>
<filter id="filter7_n_218_41" x="68.3867" y="39.3574" width="4.37793" height="4.45886" filterUnits="userSpaceOnUse" color-interpolation-filters="sRGB">
<feFlood flood-opacity="0" result="BackgroundImageFix"/>
<feBlend mode="normal" in="SourceGraphic" in2="BackgroundImageFix" result="shape"/>
<feTurbulence type="fractalNoise" baseFrequency="2 2" stitchTiles="stitch" numOctaves="3" result="noise" seed="1891" />
<feColorMatrix in="noise" type="luminanceToAlpha" result="alphaNoise" />
<feComponentTransfer in="alphaNoise" result="coloredNoise1">
<feFuncA type="discrete" tableValues="1 1 1 1 1 1 1 1 1 1 1 1 1 1 1 1 1 1 1 1 1 1 1 1 1 1 1 1 1 1 1 1 1 1 1 1 1 1 1 1 1 1 1 1 1 1 1 1 1 1 1 0 0 0 0 0 0 0 0 0 0 0 0 0 0 0 0 0 0 0 0 0 0 0 0 0 0 0 0 0 0 0 0 0 0 0 0 0 0 0 0 0 0 0 0 0 0 0 0 0 "/>
</feComponentTransfer>
<feComposite operator="in" in2="shape" in="coloredNoise1" result="noise1Clipped" />
<feFlood flood-color="rgba(255, 255, 255, 0.25)" result="color1Flood" />
<feComposite operator="in" in2="noise1Clipped" in="color1Flood" result="color1" />
<feMerge result="effect1_noise_218_41">
<feMergeNode in="shape" />
<feMergeNode in="color1" />
</feMerge>
</filter>
<filter id="filter8_d_218_41" x="13.0732" y="47.6211" width="15" height="12" filterUnits="userSpaceOnUse" color-interpolation-filters="sRGB">
<feFlood flood-opacity="0" result="BackgroundImageFix"/>
<feColorMatrix in="SourceAlpha" type="matrix" values="0 0 0 0 0 0 0 0 0 0 0 0 0 0 0 0 0 0 127 0" result="hardAlpha"/>
<feOffset dy="1"/>
<feGaussianBlur stdDeviation="2"/>
<feComposite in2="hardAlpha" operator="out"/>
<feColorMatrix type="matrix" values="0 0 0 0 1 0 0 0 0 0.943591 0 0 0 0 0.943591 0 0 0 0.25 0"/>
<feBlend mode="normal" in2="BackgroundImageFix" result="effect1_dropShadow_218_41"/>
<feBlend mode="normal" in="SourceGraphic" in2="effect1_dropShadow_218_41" result="shape"/>
</filter>
<filter id="filter9_d_218_41" x="61.0732" y="47.6211" width="15" height="12" filterUnits="userSpaceOnUse" color-interpolation-filters="sRGB">
<feFlood flood-opacity="0" result="BackgroundImageFix"/>
<feColorMatrix in="SourceAlpha" type="matrix" values="0 0 0 0 0 0 0 0 0 0 0 0 0 0 0 0 0 0 127 0" result="hardAlpha"/>
<feOffset dy="1"/>
<feGaussianBlur stdDeviation="2"/>
<feComposite in2="hardAlpha" operator="out"/>
<feColorMatrix type="matrix" values="0 0 0 0 1 0 0 0 0 0.943591 0 0 0 0 0.943591 0 0 0 0.25 0"/>
<feBlend mode="normal" in2="BackgroundImageFix" result="effect1_dropShadow_218_41"/>
<feBlend mode="normal" in="SourceGraphic" in2="effect1_dropShadow_218_41" result="shape"/>
</filter>
</defs>
</svg>
